<svg width="21" height="20" viewBox="0 0 21 20" fill="#e0e0e0" xmlns="http://www.w3.org/2000/svg">
<g clip-path="url(#clip0_1439_28460)" fill="#e0e0e0">
<path d="M10.2841 0C8.29107 0 6.34283 0.58649 4.68571 1.6853C3.02859 2.78412 1.73702 4.3459 0.97433 6.17317C0.211642 8.00043 0.0120874 10.0111 0.400903 11.9509C0.789718 13.8907 1.74944 15.6725 3.1587 17.0711C4.56797 18.4696 6.36348 19.422 8.31819 19.8079C10.2729 20.1937 12.299 19.9957 14.1403 19.2388C15.9816 18.4819 17.5554 17.2002 18.6626 15.5557C19.7699 13.9112 20.3609 11.9778 20.3609 10C20.358 7.34872 19.2954 4.80684 17.4062 2.9321C15.5171 1.05736 12.9557 0.00286757 10.2841 0ZM10.2841 18.3333C8.62324 18.3333 6.9997 17.8446 5.61877 16.9289C4.23783 16.0132 3.16153 14.7117 2.52595 13.189C1.89038 11.6663 1.72408 9.99076 2.0481 8.37425C2.37211 6.75774 3.17188 5.27288 4.34626 4.10744C5.52065 2.94201 7.01691 2.14833 8.64583 1.82679C10.2748 1.50525 11.9632 1.67027 13.4976 2.301C15.032 2.93173 16.3435 3.99984 17.2662 5.37025C18.1889 6.74066 18.6814 8.35182 18.6814 10C18.679 12.2094 17.7935 14.3276 16.2192 15.8899C14.6449 17.4522 12.5104 18.3309 10.2841 18.3333ZM14.4827 10C14.4827 10.221 14.3943 10.433 14.2368 10.5893C14.0793 10.7455 13.8657 10.8333 13.643 10.8333H11.1238V13.3333C11.1238 13.5543 11.0353 13.7663 10.8779 13.9226C10.7204 14.0789 10.5068 14.1667 10.2841 14.1667C10.0614 14.1667 9.84777 14.0789 9.69029 13.9226C9.53281 13.7663 9.44434 13.5543 9.44434 13.3333V10.8333H6.92514C6.70243 10.8333 6.48884 10.7455 6.33136 10.5893C6.17388 10.433 6.08541 10.221 6.08541 10C6.08541 9.77899 6.17388 9.56703 6.33136 9.41074C6.48884 9.25447 6.70243 9.16667 6.92514 9.16667H9.44434V6.66667C9.44434 6.44565 9.53281 6.23369 9.69029 6.07741C9.84777 5.92113 10.0614 5.83333 10.2841 5.83333C10.5068 5.83333 10.7204 5.92113 10.8779 6.07741C11.0353 6.23369 11.1238 6.44565 11.1238 6.66667V9.16667H13.643C13.8657 9.16667 14.0793 9.25447 14.2368 9.41074C14.3943 9.56703 14.4827 9.77899 14.4827 10Z" fill="#e0e0e0"/>
</g>
<defs>
<clipPath id="clip0_1439_28460">
<rect width="20.1536" height="20" fill="#e0e0e0" transform="translate(0.207275)"/>
</clipPath>
</defs>
</svg>
