<svg width="32" height="32" viewBox="0 0 32 32" fill="none" xmlns="http://www.w3.org/2000/svg">
<g clip-path="url(#clip0_483_8316)">
<path d="M16 0C24.8365 0 32 7.1635 32 16C32 24.8365 24.8365 32 16 32C16 31.3044 13.9131 16 13.9131 16L16 0Z" fill="#F0F0F0"/>
<path d="M16 32C7.1635 32 0 24.8365 0 16C0 7.1635 7.1635 0 16 0" fill="#496E2D"/>
<path d="M19.4378 12.9316L18.1251 14.7407L15.999 14.0512L17.3139 15.8587L16.0013 17.6678L18.1265 16.9758L19.4414 18.7833L19.44 16.5482L21.5653 15.8562L19.4393 15.1668L19.4378 12.9316Z" fill="#D80027"/>
<path d="M17.3273 20.5225C14.83 20.5225 12.8055 18.498 12.8055 16.0008C12.8055 13.5035 14.83 11.479 17.3273 11.479C18.1059 11.479 18.8386 11.6759 19.4782 12.0225C18.4747 11.0412 17.1024 10.4355 15.5881 10.4355C12.5145 10.4355 10.0229 12.9272 10.0229 16.0007C10.0229 19.0743 12.5146 21.5659 15.5881 21.5659C17.1025 21.5659 18.4748 20.9602 19.4782 19.9789C18.8386 20.3257 18.1059 20.5225 17.3273 20.5225Z" fill="#D80027"/>
</g>
<defs>
<clipPath id="clip0_483_8316">
<rect width="32" height="32" fill="white"/>
</clipPath>
</defs>
</svg>
