<svg width="76" height="58" viewBox="0 0 76 58" fill="none" xmlns="http://www.w3.org/2000/svg">
<path d="M63.8279 5.67163C68.5524 12.2391 71.3349 20.2971 71.3349 29.005C71.3349 37.7129 68.5524 45.7708 63.8279 52.3383M50.4859 15.6716C53.1222 19.4511 54.6682 24.0475 54.6682 29.005C54.6682 33.9625 53.1222 38.5589 50.4859 42.3383M30.1159 6.89058L19.5636 17.4429C18.9871 18.0194 18.6989 18.3076 18.3625 18.5138C18.0643 18.6965 17.7391 18.8312 17.399 18.9129C17.0154 19.005 16.6077 19.005 15.7924 19.005H10.0015C8.13471 19.005 7.20128 19.005 6.48824 19.3683C5.86104 19.6879 5.3511 20.1978 5.03152 20.825C4.66821 21.538 4.66821 22.4715 4.66821 24.3383V33.6716C4.66821 35.5385 4.66821 36.4719 5.03152 37.1849C5.3511 37.8121 5.86104 38.3221 6.48824 38.6417C7.20128 39.005 8.13471 39.005 10.0015 39.005H15.7924C16.6077 39.005 17.0154 39.005 17.399 39.0971C17.7391 39.1787 18.0643 39.3134 18.3625 39.4962C18.6989 39.7023 18.9871 39.9906 19.5636 40.5671L30.1159 51.1194C31.5439 52.5473 32.2578 53.2612 32.8708 53.3095C33.4027 53.3513 33.9224 53.136 34.2689 52.7304C34.6682 52.2628 34.6682 51.2531 34.6682 49.2337V8.7762C34.6682 6.75682 34.6682 5.74712 34.2689 5.27957C33.9224 4.87389 33.4027 4.6586 32.8708 4.70046C32.2578 4.7487 31.5439 5.46266 30.1159 6.89058Z" stroke="#B4B4B4" stroke-width="8.33333" stroke-linecap="round" stroke-linejoin="round"/>
</svg>
