<svg width="5" height="10" viewBox="0 0 5 10" fill="none" xmlns="http://www.w3.org/2000/svg">
<path d="M0.733465 3.58663L3.79346 0.526625C3.91837 0.402458 4.08734 0.332764 4.26347 0.332764C4.43959 0.332764 4.60856 0.402458 4.73347 0.526625C4.79595 0.588601 4.84555 0.662335 4.87939 0.743574C4.91324 0.824814 4.93066 0.911951 4.93066 0.999959C4.93066 1.08797 4.91324 1.1751 4.87939 1.25634C4.84555 1.33758 4.79595 1.41132 4.73347 1.47329L1.6668 4.52663C1.60431 4.5886 1.55472 4.66233 1.52087 4.74357C1.48703 4.82481 1.4696 4.91195 1.4696 4.99996C1.4696 5.08797 1.48703 5.1751 1.52087 5.25634C1.55472 5.33758 1.60431 5.41132 1.6668 5.47329L4.73347 8.52663C4.859 8.65128 4.92988 8.82069 4.9305 8.9976C4.93113 9.17451 4.86145 9.34442 4.7368 9.46996C4.61215 9.59549 4.44273 9.66637 4.26582 9.667C4.08891 9.66762 3.919 9.59794 3.79346 9.47329L0.733465 6.41329C0.358931 6.03829 0.148558 5.52996 0.148558 4.99996C0.148558 4.46996 0.358931 3.96163 0.733465 3.58663Z" fill="#ECECEC"/>
</svg>
