<svg width="24" height="24" viewBox="0 0 24 24" fill="none" xmlns="http://www.w3.org/2000/svg">
<rect width="24" height="24" rx="12" fill="#FFF1B2"/>
<path d="M17.1653 7.33296C18.1102 8.64645 18.6667 10.258 18.6667 11.9996C18.6667 13.7412 18.1102 15.3528 17.1653 16.6663M14.4969 9.33296C15.0242 10.0888 15.3334 11.0081 15.3334 11.9996C15.3334 12.9911 15.0242 13.9104 14.4969 14.6663M10.4229 7.57675L8.31246 9.68721C8.19716 9.80251 8.13951 9.86016 8.07223 9.90139C8.01258 9.93794 7.94755 9.96487 7.87953 9.98121C7.8028 9.99963 7.72127 9.99963 7.55821 9.99963H6.40004C6.02667 9.99963 5.83999 9.99963 5.69738 10.0723C5.57194 10.1362 5.46995 10.2382 5.40604 10.3636C5.33337 10.5062 5.33337 10.6929 5.33337 11.0663V12.933C5.33337 13.3063 5.33337 13.493 5.40604 13.6356C5.46995 13.7611 5.57194 13.863 5.69738 13.927C5.83999 13.9996 6.02667 13.9996 6.40004 13.9996H7.55821C7.72127 13.9996 7.8028 13.9996 7.87953 14.018C7.94755 14.0344 8.01258 14.0613 8.07223 14.0979C8.13951 14.1391 8.19716 14.1967 8.31246 14.312L10.4229 16.4225C10.7085 16.7081 10.8513 16.8509 10.9739 16.8605C11.0803 16.8689 11.1842 16.8258 11.2535 16.7447C11.3334 16.6512 11.3334 16.4493 11.3334 16.0454V7.95387C11.3334 7.55 11.3334 7.34806 11.2535 7.25455C11.1842 7.17341 11.0803 7.13035 10.9739 7.13872C10.8513 7.14837 10.7085 7.29116 10.4229 7.57675Z" stroke="black" stroke-width="1.66667" stroke-linecap="round" stroke-linejoin="round"/>
</svg>
