<svg width="91" height="90" viewBox="0 0 91 90" fill="none" xmlns="http://www.w3.org/2000/svg">
<path d="M37.4099 48.75C37.4099 46.5122 38.2989 44.3661 39.8812 42.7838C41.4635 41.2014 43.6096 40.3125 45.8474 40.3125C48.0852 40.3125 50.2313 41.2014 51.8136 42.7838C53.396 44.3661 54.2849 46.5122 54.2849 48.75C54.2849 50.9878 53.396 53.1339 51.8136 54.7162C50.2313 56.2986 48.0852 57.1875 45.8474 57.1875C43.6096 57.1875 41.4635 56.2986 39.8812 54.7162C38.2989 53.1339 37.4099 50.9878 37.4099 48.75Z" fill="#B4B4B4"/>
<path fill-rule="evenodd" clip-rule="evenodd" d="M28.8752 28.6575C28.8742 27.1099 29.1783 25.5773 29.7701 24.1474C30.3618 22.7174 31.2297 21.4181 32.324 20.3238C33.4183 19.2295 34.7176 18.3617 36.1475 17.7699C37.5775 17.1781 39.1101 16.874 40.6577 16.875H51.0377C52.5853 16.874 54.1178 17.1781 55.5478 17.7699C56.9778 18.3617 58.2771 19.2295 59.3714 20.3238C60.4657 21.4181 61.3335 22.7174 61.9253 24.1474C62.5171 25.5773 62.8212 27.1099 62.8202 28.6575C62.8208 28.6843 62.831 28.7099 62.8489 28.7299C62.8667 28.7498 62.8911 28.7627 62.9177 28.7663L71.2802 29.4413C75.0264 29.7488 78.1052 32.5163 78.8064 36.21C80.587 45.632 80.719 55.2916 79.1964 64.7588L78.8327 67.0238C78.4989 69.099 77.4789 71.0023 75.9356 72.4293C74.3924 73.8563 72.4151 74.7245 70.3202 74.895L63.0339 75.4838C51.5953 76.413 40.1001 76.413 28.6614 75.4838L21.3752 74.895C19.2797 74.7243 17.302 73.8556 15.7587 72.4278C14.2154 71.0001 13.1956 69.0959 12.8627 67.02L12.4989 64.7588C10.9727 55.29 11.1077 45.6338 12.8889 36.21C13.2295 34.4138 14.1504 32.7791 15.51 31.557C16.8697 30.3348 18.593 29.5929 20.4152 29.445L28.7777 28.7663C28.8042 28.7627 28.8286 28.7498 28.8465 28.7299C28.8643 28.7099 28.8745 28.6843 28.8752 28.6575ZM45.8477 34.6875C42.1181 34.6875 38.5412 36.1691 35.904 38.8063C33.2668 41.4435 31.7852 45.0204 31.7852 48.75C31.7852 52.4796 33.2668 56.0565 35.904 58.6937C38.5412 61.3309 42.1181 62.8125 45.8477 62.8125C49.5773 62.8125 53.1541 61.3309 55.7914 58.6937C58.4286 56.0565 59.9102 52.4796 59.9102 48.75C59.9102 45.0204 58.4286 41.4435 55.7914 38.8063C53.1541 36.1691 49.5773 34.6875 45.8477 34.6875Z" fill="#B4B4B4"/>
</svg>
