<svg width="16" height="16" viewBox="0 0 16 16" fill="none" xmlns="http://www.w3.org/2000/svg">
<g clip-path="url(#clip0_740_7365)">
<path d="M14 2.66667H11.9333C11.7786 1.91428 11.3692 1.23823 10.7741 0.752479C10.1791 0.266727 9.43478 0.000969683 8.66665 0L7.33331 0C6.56518 0.000969683 5.82086 0.266727 5.22581 0.752479C4.63077 1.23823 4.22138 1.91428 4.06665 2.66667H1.99998C1.82317 2.66667 1.6536 2.7369 1.52858 2.86193C1.40355 2.98695 1.33331 3.15652 1.33331 3.33333C1.33331 3.51014 1.40355 3.67971 1.52858 3.80474C1.6536 3.92976 1.82317 4 1.99998 4H2.66665V12.6667C2.6677 13.5504 3.01923 14.3976 3.64413 15.0225C4.26902 15.6474 5.11625 15.9989 5.99998 16H9.99998C10.8837 15.9989 11.7309 15.6474 12.3558 15.0225C12.9807 14.3976 13.3323 13.5504 13.3333 12.6667V4H14C14.1768 4 14.3464 3.92976 14.4714 3.80474C14.5964 3.67971 14.6666 3.51014 14.6666 3.33333C14.6666 3.15652 14.5964 2.98695 14.4714 2.86193C14.3464 2.7369 14.1768 2.66667 14 2.66667ZM7.33331 1.33333H8.66665C9.08016 1.33384 9.4834 1.46225 9.82105 1.70096C10.1587 1.93967 10.4143 2.27699 10.5526 2.66667H5.44731C5.5857 2.27699 5.84125 1.93967 6.1789 1.70096C6.51656 1.46225 6.9198 1.33384 7.33331 1.33333ZM12 12.6667C12 13.1971 11.7893 13.7058 11.4142 14.0809C11.0391 14.456 10.5304 14.6667 9.99998 14.6667H5.99998C5.46955 14.6667 4.96084 14.456 4.58577 14.0809C4.21069 13.7058 3.99998 13.1971 3.99998 12.6667V4H12V12.6667Z" fill="#030303"/>
<path d="M6.66667 12.0001C6.84348 12.0001 7.01305 11.9298 7.13807 11.8048C7.2631 11.6798 7.33333 11.5102 7.33333 11.3334V7.33341C7.33333 7.1566 7.2631 6.98703 7.13807 6.86201C7.01305 6.73699 6.84348 6.66675 6.66667 6.66675C6.48986 6.66675 6.32029 6.73699 6.19526 6.86201C6.07024 6.98703 6 7.1566 6 7.33341V11.3334C6 11.5102 6.07024 11.6798 6.19526 11.8048C6.32029 11.9298 6.48986 12.0001 6.66667 12.0001Z" fill="#282B2B"/>
<path d="M9.33335 12.0001C9.51016 12.0001 9.67973 11.9298 9.80476 11.8048C9.92978 11.6798 10 11.5102 10 11.3334V7.33341C10 7.1566 9.92978 6.98703 9.80476 6.86201C9.67973 6.73699 9.51016 6.66675 9.33335 6.66675C9.15654 6.66675 8.98697 6.73699 8.86195 6.86201C8.73693 6.98703 8.66669 7.1566 8.66669 7.33341V11.3334C8.66669 11.5102 8.73693 11.6798 8.86195 11.8048C8.98697 11.9298 9.15654 12.0001 9.33335 12.0001Z" fill="#282B2B"/>
</g>
<defs>
<clipPath id="clip0_740_7365">
<rect width="16" height="16" fill="white"/>
</clipPath>
</defs>
</svg>
