<svg width="9" height="13" viewBox="0 0 9 13" fill="none" xmlns="http://www.w3.org/2000/svg">
<g clip-path="url(#clip0_2144_14148)">
<path d="M7.21926 9.85452C6.40959 9.85892 5.77633 10.4848 5.78537 11.2781C5.7899 12.0494 6.44578 12.6752 7.24188 12.6664C8.02894 12.662 8.67125 12.0273 8.66672 11.2516C8.6622 10.4759 8.01084 9.85011 7.21926 9.85452Z" fill="black"/>
<path d="M5.7811 1.41035C5.7811 2.18604 6.42341 2.81188 7.21951 2.81188C8.02013 2.81188 8.66245 2.19044 8.66697 1.41475C8.67149 0.639063 8.02466 0 7.23308 0C6.42793 0 5.78562 0.621434 5.7811 1.41035Z" fill="black"/>
<path d="M1.46117 2.81209C2.27084 2.80327 2.89958 2.16861 2.88601 1.3797C2.87244 0.604013 2.22109 -0.0130134 1.42046 0.000208586C0.619836 0.0134306 -0.0134284 0.656901 0.000141621 1.44141C0.0137115 2.20828 0.669592 2.8209 1.46117 2.81209Z" fill="black"/>
<path d="M1.4385 9.85452C0.628829 9.86333 -0.00443459 10.4892 8.86917e-05 11.2781C0.00461221 12.045 0.665016 12.6752 1.46112 12.6664C2.25722 12.6576 2.89049 12.0273 2.88596 11.2472C2.88144 10.4715 2.23461 9.85011 1.4385 9.85452Z" fill="black"/>
<path d="M5.78085 6.33322C5.77633 7.10891 6.42316 7.74357 7.21926 7.74357C8.01084 7.74357 8.6622 7.11332 8.66672 6.34203C8.67125 5.56634 8.02441 4.93169 7.23736 4.92287C6.43221 4.91847 5.78537 5.54872 5.78085 6.33322Z" fill="black"/>
<path d="M0.000112772 6.3376C0.000112772 7.10889 0.655993 7.74354 1.44757 7.73914C2.24368 7.73473 2.88599 7.10889 2.88599 6.3332C2.88599 5.55751 2.24368 4.92285 1.4521 4.92285C0.646947 4.92285 0.000112772 5.55751 0.000112772 6.3376Z" fill="black"/>
</g>
<defs>
<clipPath id="clip0_2144_14148">
<rect width="8.66667" height="12.6667" fill="white" transform="matrix(-1 0 0 1 8.66675 0)"/>
</clipPath>
</defs>
</svg>
