<svg width="12" height="6" viewBox="0 0 12 6" fill="none" xmlns="http://www.w3.org/2000/svg">
<path d="M11.5917 0.246499C11.5142 0.168392 11.422 0.106396 11.3205 0.0640889C11.2189 0.0217817 11.11 0 11 0C10.89 0 10.7811 0.0217817 10.6795 0.0640889C10.578 0.106396 10.4858 0.168392 10.4083 0.246499L6.59168 4.06317C6.51421 4.14127 6.42204 4.20327 6.32049 4.24557C6.21894 4.28788 6.11002 4.30966 6.00001 4.30966C5.89 4.30966 5.78108 4.28788 5.67953 4.24557C5.57798 4.20327 5.48581 4.14127 5.40834 4.06317L1.59168 0.246499C1.51421 0.168392 1.42204 0.106396 1.32049 0.0640889C1.21894 0.0217817 1.11002 0 1.00001 0C0.889999 0 0.781078 0.0217817 0.679529 0.0640889C0.577979 0.106396 0.485812 0.168392 0.408343 0.246499C0.253134 0.402634 0.166016 0.613844 0.166016 0.833999C0.166016 1.05415 0.253134 1.26536 0.408343 1.4215L4.23334 5.2465C4.70209 5.71467 5.33751 5.97763 6.00001 5.97763C6.66251 5.97763 7.29792 5.71467 7.76668 5.2465L11.5917 1.4215C11.7469 1.26536 11.834 1.05415 11.834 0.833999C11.834 0.613844 11.7469 0.402634 11.5917 0.246499Z" fill="#2B2A28"/>
</svg>
