<svg width="80" height="80" viewBox="0 0 80 80" fill="none" xmlns="http://www.w3.org/2000/svg">
<g clip-path="url(#clip0_1439_24500)">
<path d="M40 80C62.0914 80 80 62.0914 80 40C80 17.9086 62.0914 0 40 0C17.9086 0 0 17.9086 0 40C0 62.0914 17.9086 80 40 80Z" fill="#F0F0F0"/>
<path d="M8.26871 15.6475C5.12668 19.7354 2.75746 24.4471 1.37793 29.5657H22.187L8.26871 15.6475Z" fill="#0052B4"/>
<path d="M78.6222 29.5656C77.2427 24.4471 74.8733 19.7354 71.7314 15.6475L57.8135 29.5656H78.6222Z" fill="#0052B4"/>
<path d="M1.37793 50.4346C2.75762 55.553 5.12684 60.2647 8.26871 64.3525L22.1865 50.4346H1.37793Z" fill="#0052B4"/>
<path d="M64.3527 8.26887C60.2647 5.12684 55.5532 2.75762 50.4346 1.37793V22.1868L64.3527 8.26887Z" fill="#0052B4"/>
<path d="M15.647 71.7313C19.7349 74.8733 24.4467 77.2425 29.5651 78.6222V57.8135L15.647 71.7313Z" fill="#0052B4"/>
<path d="M29.5649 1.37793C24.4465 2.75762 19.7348 5.12684 15.647 8.26871L29.5649 22.1867V1.37793Z" fill="#0052B4"/>
<path d="M50.4346 78.6222C55.553 77.2425 60.2647 74.8733 64.3525 71.7314L50.4346 57.8135V78.6222Z" fill="#0052B4"/>
<path d="M57.8135 50.4346L71.7314 64.3527C74.8733 60.2649 77.2427 55.553 78.6222 50.4346H57.8135Z" fill="#0052B4"/>
<path d="M79.6614 34.7827H45.2177H45.2175V0.338594C43.5095 0.11625 41.7683 0 40 0C38.2314 0 36.4905 0.11625 34.7827 0.338594V34.7823V34.7825H0.338594C0.11625 36.4905 0 38.2317 0 40C0 41.7686 0.11625 43.5095 0.338594 45.2173H34.7823H34.7825V79.6614C36.4905 79.8838 38.2314 80 40 80C41.7683 80 43.5095 79.8839 45.2173 79.6614V45.2177V45.2175H79.6614C79.8838 43.5095 80 41.7686 80 40C80 38.2317 79.8838 36.4905 79.6614 34.7827Z" fill="#D80027"/>
<path d="M50.4351 50.4347L68.2844 68.2841C69.1054 67.4635 69.8885 66.6055 70.6357 65.7161L55.3541 50.4346H50.4351V50.4347Z" fill="#D80027"/>
<path d="M29.5653 50.4346H29.565L11.7158 68.2838C12.5364 69.1047 13.3944 69.8879 14.2838 70.635L29.5653 55.3532V50.4346Z" fill="#D80027"/>
<path d="M29.5654 29.5657V29.5653L11.716 11.7158C10.8951 12.5364 10.1119 13.3944 9.36475 14.2838L24.6465 29.5655H29.5654V29.5657Z" fill="#D80027"/>
<path d="M50.4351 29.565L68.2846 11.7154C67.464 10.8944 66.606 10.1113 65.7166 9.36426L50.4351 24.646V29.565Z" fill="#D80027"/>
</g>
<defs>
<clipPath id="clip0_1439_24500">
<rect width="80" height="80" fill="white"/>
</clipPath>
</defs>
</svg>
