<svg width="20" height="20" viewBox="0 0 20 20" fill="none" xmlns="http://www.w3.org/2000/svg">
<g clip-path="url(#clip0_2090_13725)">
<mask id="path-1-inside-1_2090_13725" fill="white">
<path d="M15.8333 0H4.16667C3.062 0.00132321 2.00296 0.440735 1.22185 1.22185C0.440735 2.00296 0.00132321 3.062 0 4.16667L0 15.8333C0.00132321 16.938 0.440735 17.997 1.22185 18.7782C2.00296 19.5593 3.062 19.9987 4.16667 20H15.8333C16.938 19.9987 17.997 19.5593 18.7782 18.7782C19.5593 17.997 19.9987 16.938 20 15.8333V4.16667C19.9987 3.062 19.5593 2.00296 18.7782 1.22185C17.997 0.440735 16.938 0.00132321 15.8333 0ZM4.16667 1.66667H15.8333C16.4964 1.66667 17.1323 1.93006 17.6011 2.3989C18.0699 2.86774 18.3333 3.50363 18.3333 4.16667V15.8333C18.3319 16.2046 18.2464 16.5707 18.0833 16.9042L10.4475 9.26833C10.0606 8.88131 9.6012 8.57429 9.0956 8.36483C8.59001 8.15537 8.0481 8.04756 7.50083 8.04756C6.95357 8.04756 6.41166 8.15537 5.90606 8.36483C5.40047 8.57429 4.94109 8.88131 4.55417 9.26833L1.66667 12.155V4.16667C1.66667 3.50363 1.93006 2.86774 2.3989 2.3989C2.86774 1.93006 3.50363 1.66667 4.16667 1.66667ZM4.16667 18.3333C3.50363 18.3333 2.86774 18.0699 2.3989 17.6011C1.93006 17.1323 1.66667 16.4964 1.66667 15.8333V14.5117L5.73167 10.4467C5.96383 10.2144 6.2395 10.0301 6.54292 9.90432C6.84634 9.77858 7.17156 9.71387 7.5 9.71387C7.82844 9.71387 8.15366 9.77858 8.45708 9.90432C8.7605 10.0301 9.03617 10.2144 9.26833 10.4467L16.9042 18.0833C16.5707 18.2464 16.2046 18.3319 15.8333 18.3333H4.16667Z"/>
</mask>
<path d="M15.8333 0H4.16667C3.062 0.00132321 2.00296 0.440735 1.22185 1.22185C0.440735 2.00296 0.00132321 3.062 0 4.16667L0 15.8333C0.00132321 16.938 0.440735 17.997 1.22185 18.7782C2.00296 19.5593 3.062 19.9987 4.16667 20H15.8333C16.938 19.9987 17.997 19.5593 18.7782 18.7782C19.5593 17.997 19.9987 16.938 20 15.8333V4.16667C19.9987 3.062 19.5593 2.00296 18.7782 1.22185C17.997 0.440735 16.938 0.00132321 15.8333 0ZM4.16667 1.66667H15.8333C16.4964 1.66667 17.1323 1.93006 17.6011 2.3989C18.0699 2.86774 18.3333 3.50363 18.3333 4.16667V15.8333C18.3319 16.2046 18.2464 16.5707 18.0833 16.9042L10.4475 9.26833C10.0606 8.88131 9.6012 8.57429 9.0956 8.36483C8.59001 8.15537 8.0481 8.04756 7.50083 8.04756C6.95357 8.04756 6.41166 8.15537 5.90606 8.36483C5.40047 8.57429 4.94109 8.88131 4.55417 9.26833L1.66667 12.155V4.16667C1.66667 3.50363 1.93006 2.86774 2.3989 2.3989C2.86774 1.93006 3.50363 1.66667 4.16667 1.66667ZM4.16667 18.3333C3.50363 18.3333 2.86774 18.0699 2.3989 17.6011C1.93006 17.1323 1.66667 16.4964 1.66667 15.8333V14.5117L5.73167 10.4467C5.96383 10.2144 6.2395 10.0301 6.54292 9.90432C6.84634 9.77858 7.17156 9.71387 7.5 9.71387C7.82844 9.71387 8.15366 9.77858 8.45708 9.90432C8.7605 10.0301 9.03617 10.2144 9.26833 10.4467L16.9042 18.0833C16.5707 18.2464 16.2046 18.3319 15.8333 18.3333H4.16667Z" fill="#282B2B"/>
<path d="M15.8333 0L15.8589 -21.3333L15.8461 -21.3333H15.8333V0ZM4.16667 0V-21.3333H4.15389L4.14111 -21.3333L4.16667 0ZM0 4.16667L-21.3333 4.14111L-21.3333 4.15389V4.16667H0ZM0 15.8333H-21.3333V15.8461L-21.3333 15.8589L0 15.8333ZM4.16667 20L4.14111 41.3333L4.15389 41.3333H4.16667V20ZM15.8333 20V41.3333H15.8461L15.8589 41.3333L15.8333 20ZM20 15.8333L41.3333 15.8589L41.3333 15.8461V15.8333H20ZM20 4.16667H41.3333V4.15389L41.3333 4.14111L20 4.16667ZM4.16667 1.66667V-19.6667V1.66667ZM18.3333 4.16667H39.6667H18.3333ZM18.3333 15.8333L39.6665 15.9159L39.6667 15.8746V15.8333H18.3333ZM18.0833 16.9042L2.99839 31.9891L24.1232 53.1139L37.2477 26.2763L18.0833 16.9042ZM10.4475 9.26833L-4.63943 24.3513L-4.63744 24.3533L10.4475 9.26833ZM4.55417 9.26833L19.6369 24.3555L19.6411 24.3513L4.55417 9.26833ZM1.66667 12.155H-19.6667V63.6477L16.7494 27.2421L1.66667 12.155ZM1.66667 4.16667H-19.6667H1.66667ZM4.16667 18.3333V39.6667V18.3333ZM1.66667 15.8333H-19.6667H1.66667ZM1.66667 14.5117L-13.4183 -0.57328L-19.6667 5.67511V14.5117H1.66667ZM5.73167 10.4467L20.8166 25.5316L20.8214 25.5268L5.73167 10.4467ZM9.26833 10.4467L-5.82145 25.5268L-5.81744 25.5308L9.26833 10.4467ZM16.9042 18.0833L26.2763 37.2477L53.1123 24.1239L31.9899 2.99921L16.9042 18.0833ZM15.8333 18.3333V39.6667H15.8746L15.9159 39.6665L15.8333 18.3333ZM15.8333 -21.3333H4.16667V21.3333H15.8333V-21.3333ZM4.14111 -21.3333C-2.61264 -21.3252 -9.08747 -18.6387 -13.8631 -13.8631L16.3068 16.3068C13.0934 19.5202 8.73665 21.3279 4.19222 21.3333L4.14111 -21.3333ZM-13.8631 -13.8631C-18.6387 -9.08747 -21.3252 -2.61264 -21.3333 4.14111L21.3333 4.19222C21.3279 8.73665 19.5202 13.0934 16.3068 16.3068L-13.8631 -13.8631ZM-21.3333 4.16667V15.8333H21.3333V4.16667H-21.3333ZM-21.3333 15.8589C-21.3252 22.6126 -18.6387 29.0875 -13.8631 33.8631L16.3068 3.69321C19.5202 6.90661 21.3279 11.2634 21.3333 15.8078L-21.3333 15.8589ZM-13.8631 33.8631C-9.08746 38.6387 -2.61263 41.3252 4.14111 41.3333L4.19222 -1.33332C8.73664 -1.32788 13.0934 0.479798 16.3068 3.69321L-13.8631 33.8631ZM4.16667 41.3333H15.8333V-1.33333H4.16667V41.3333ZM15.8589 41.3333C22.6126 41.3252 29.0875 38.6387 33.8631 33.8631L3.69321 3.69321C6.90662 0.479795 11.2634 -1.32788 15.8078 -1.33332L15.8589 41.3333ZM33.8631 33.8631C38.6387 29.0875 41.3252 22.6126 41.3333 15.8589L-1.33332 15.8078C-1.32788 11.2634 0.479795 6.90662 3.69321 3.69321L33.8631 33.8631ZM41.3333 15.8333V4.16667H-1.33333V15.8333H41.3333ZM41.3333 4.14111C41.3252 -2.61263 38.6387 -9.08746 33.8631 -13.8631L3.69321 16.3068C0.479798 13.0934 -1.32788 8.73664 -1.33332 4.19222L41.3333 4.14111ZM33.8631 -13.8631C29.0875 -18.6387 22.6126 -21.3252 15.8589 -21.3333L15.8078 21.3333C11.2634 21.3279 6.90661 19.5202 3.69321 16.3068L33.8631 -13.8631ZM4.16667 23H15.8333V-19.6667H4.16667V23ZM15.8333 23C10.8384 23 6.04809 21.0158 2.51616 17.4838L32.686 -12.686C28.2164 -17.1557 22.1543 -19.6667 15.8333 -19.6667V23ZM2.51616 17.4838C-1.01578 13.9519 -3 9.16157 -3 4.16667H39.6667C39.6667 -2.15432 37.1557 -8.21642 32.686 -12.686L2.51616 17.4838ZM-3 4.16667V15.8333H39.6667V4.16667H-3ZM-2.99984 15.7507C-2.98881 12.9015 -2.33284 10.0917 -1.08108 7.53207L37.2477 26.2763C38.8257 23.0496 39.6526 19.5076 39.6665 15.9159L-2.99984 15.7507ZM33.1683 1.81922L25.5324 -5.81661L-4.63744 24.3533L2.99839 31.9891L33.1683 1.81922ZM25.5344 -5.81462C23.1665 -8.18323 20.3551 -10.0621 17.2608 -11.3441L0.930388 28.0737C-1.15266 27.2107 -3.0453 25.9458 -4.63943 24.3513L25.5344 -5.81462ZM17.2608 -11.3441C14.1666 -12.626 10.8501 -13.2858 7.50083 -13.2858V29.3809C5.24609 29.3809 3.01343 28.9367 0.930388 28.0737L17.2608 -11.3441ZM7.50083 -13.2858C4.15156 -13.2858 0.83509 -12.626 -2.25915 -11.3441L14.0713 28.0737C11.9882 28.9367 9.75558 29.3809 7.50083 29.3809V-13.2858ZM-2.25915 -11.3441C-5.35339 -10.0621 -8.16479 -8.18323 -10.5328 -5.81462L19.6411 24.3513C18.047 25.9458 16.1543 27.2107 14.0713 28.0737L-2.25915 -11.3441ZM-10.5286 -5.81879L-13.4161 -2.93212L16.7494 27.2421L19.6369 24.3555L-10.5286 -5.81879ZM23 12.155V4.16667H-19.6667V12.155H23ZM23 4.16667C23 9.16158 21.0158 13.9519 17.4838 17.4838L-12.686 -12.686C-17.1557 -8.21643 -19.6667 -2.15433 -19.6667 4.16667H23ZM17.4838 17.4838C13.9519 21.0158 9.16158 23 4.16667 23V-19.6667C-2.15433 -19.6667 -8.21643 -17.1557 -12.686 -12.686L17.4838 17.4838ZM4.16667 -3C9.16157 -3 13.9519 -1.01578 17.4838 2.51616L-12.686 32.686C-8.21642 37.1557 -2.15432 39.6667 4.16667 39.6667V-3ZM17.4838 2.51616C21.0158 6.04809 23 10.8384 23 15.8333H-19.6667C-19.6667 22.1543 -17.1557 28.2164 -12.686 32.686L17.4838 2.51616ZM23 15.8333V14.5117H-19.6667V15.8333H23ZM16.7516 29.5966L20.8166 25.5316L-9.35328 -4.63828L-13.4183 -0.57328L16.7516 29.5966ZM20.8214 25.5268C19.0724 27.2769 16.9957 28.6652 14.71 29.6124L-1.62415 -9.8038C-4.51673 -8.60511 -7.14478 -6.8482 -9.35811 -4.63344L20.8214 25.5268ZM14.71 29.6124C12.4243 30.5597 9.97427 31.0472 7.5 31.0472V-11.6195C4.36885 -11.6195 1.26841 -11.0025 -1.62415 -9.8038L14.71 29.6124ZM7.5 31.0472C5.02573 31.0472 2.57574 30.5597 0.290008 29.6124L16.6241 -9.8038C13.7316 -11.0025 10.6311 -11.6195 7.5 -11.6195V31.0472ZM0.290008 29.6124C-1.99575 28.6652 -4.07246 27.2769 -5.82144 25.5268L24.3581 -4.63344C22.1448 -6.84818 19.5167 -8.6051 16.6241 -9.8038L0.290008 29.6124ZM-5.81744 25.5308L1.8184 33.1675L31.9899 2.99921L24.3541 -4.63745L-5.81744 25.5308ZM7.53207 -1.08108C10.0917 -2.33284 12.9015 -2.98881 15.7507 -2.99984L15.9159 39.6665C19.5076 39.6526 23.0496 38.8257 26.2763 37.2477L7.53207 -1.08108ZM15.8333 -3H4.16667V39.6667H15.8333V-3Z" fill="#394150" mask="url(#path-1-inside-1_2090_13725)"/>
<path d="M13.3334 8.75033C13.9103 8.75033 14.4742 8.57927 14.9538 8.25878C15.4335 7.93829 15.8073 7.48277 16.0281 6.94982C16.2488 6.41687 16.3066 5.83043 16.194 5.26465C16.0815 4.69887 15.8037 4.17917 15.3958 3.77127C14.9879 3.36336 14.4682 3.08558 13.9024 2.97304C13.3366 2.8605 12.7502 2.91826 12.2173 3.13901C11.6843 3.35977 11.2288 3.7336 10.9083 4.21325C10.5878 4.69289 10.4167 5.2568 10.4167 5.83366C10.4167 6.60721 10.724 7.34907 11.271 7.89605C11.818 8.44304 12.5599 8.75033 13.3334 8.75033ZM13.3334 4.58366C13.5806 4.58366 13.8223 4.65697 14.0279 4.79432C14.2334 4.93168 14.3937 5.1269 14.4883 5.35531C14.5829 5.58371 14.6076 5.83505 14.5594 6.07752C14.5112 6.32 14.3921 6.54273 14.2173 6.71754C14.0425 6.89236 13.8198 7.01141 13.5773 7.05964C13.3348 7.10787 13.0835 7.08312 12.8551 6.98851C12.6267 6.8939 12.4314 6.73368 12.2941 6.52812C12.1567 6.32256 12.0834 6.08089 12.0834 5.83366C12.0834 5.50214 12.2151 5.1842 12.4495 4.94978C12.684 4.71536 13.0019 4.58366 13.3334 4.58366Z" fill="#282B2B"/>
</g>
<defs>
<clipPath id="clip0_2090_13725">
<rect width="20" height="20" fill="white"/>
</clipPath>
</defs>
</svg>
