<svg width="17" height="18" viewBox="0 0 17 18" fill="none" xmlns="http://www.w3.org/2000/svg">
<path d="M13.1666 6.616V5.66667C13.1666 4.42899 12.6749 3.242 11.7998 2.36684C10.9246 1.49167 9.7376 1 8.49992 1C7.26224 1 6.07526 1.49167 5.20009 2.36684C4.32492 3.242 3.83325 4.42899 3.83325 5.66667V6.616C3.23949 6.87514 2.73411 7.30168 2.37892 7.84347C2.02372 8.38527 1.8341 9.01882 1.83325 9.66667V13.6667C1.83431 14.5504 2.18584 15.3976 2.81073 16.0225C3.43562 16.6474 4.28286 16.9989 5.16659 17H11.8333C12.717 16.9989 13.5642 16.6474 14.1891 16.0225C14.814 15.3976 15.1655 14.5504 15.1666 13.6667V9.66667C15.1657 9.01882 14.9761 8.38527 14.6209 7.84347C14.2657 7.30168 13.7603 6.87514 13.1666 6.616ZM5.16659 5.66667C5.16659 4.78261 5.51777 3.93477 6.1429 3.30964C6.76802 2.68452 7.61586 2.33333 8.49992 2.33333C9.38397 2.33333 10.2318 2.68452 10.8569 3.30964C11.4821 3.93477 11.8333 4.78261 11.8333 5.66667V6.33333H5.16659V5.66667ZM13.8333 13.6667C13.8333 14.1971 13.6225 14.7058 13.2475 15.0809C12.8724 15.456 12.3637 15.6667 11.8333 15.6667H5.16659C4.63615 15.6667 4.12744 15.456 3.75237 15.0809C3.3773 14.7058 3.16659 14.1971 3.16659 13.6667V9.66667C3.16659 9.13623 3.3773 8.62753 3.75237 8.25245C4.12744 7.87738 4.63615 7.66667 5.16659 7.66667H11.8333C12.3637 7.66667 12.8724 7.87738 13.2475 8.25245C13.6225 8.62753 13.8333 9.13623 13.8333 9.66667V13.6667Z" fill="#282B2B" stroke="black" stroke-width="0.4"/>
<path d="M8.49992 10.333C8.32311 10.333 8.15354 10.4032 8.02851 10.5283C7.90349 10.6533 7.83325 10.8229 7.83325 10.9997V12.333C7.83325 12.5098 7.90349 12.6794 8.02851 12.8044C8.15354 12.9294 8.32311 12.9997 8.49992 12.9997C8.67673 12.9997 8.8463 12.9294 8.97132 12.8044C9.09635 12.6794 9.16659 12.5098 9.16659 12.333V10.9997C9.16659 10.8229 9.09635 10.6533 8.97132 10.5283C8.8463 10.4032 8.67673 10.333 8.49992 10.333Z" fill="#282B2B" stroke="black"/>
</svg>
