<svg width="32" height="32" viewBox="0 0 32 32" fill="none" xmlns="http://www.w3.org/2000/svg">
<g clip-path="url(#clip0_483_8320)">
<path d="M16 32C24.8366 32 32 24.8366 32 16C32 7.16344 24.8366 0 16 0C7.16344 0 0 7.16344 0 16C0 24.8366 7.16344 32 16 32Z" fill="#D80027"/>
<path d="M25.4554 13.1315H18.2321L15.9999 6.26172L13.7678 13.1315H6.54443L12.3882 17.3772L10.1561 24.2472L15.9999 20.0013L21.8438 24.2472L19.6116 17.3773L25.4554 13.1315ZM14.0238 16.8458L14.7786 14.5227H17.2212L17.9761 16.8458V16.8458L15.9999 18.2815L14.0239 16.8458L14.0238 16.8458ZM16.7692 13.1315H15.2307L15.9999 10.764L16.7692 13.1315ZM19.1595 15.986L18.6841 14.5228H21.1734L19.1595 15.986ZM13.3157 14.5228L12.8403 15.986L10.8264 14.5228H13.3157ZM12.8025 20.6047L13.5717 18.2372L14.8164 19.1415L12.8025 20.6047ZM17.1834 19.1415L18.4281 18.2373L19.1974 20.6047L17.1834 19.1415Z" fill="#FFDA44"/>
</g>
<defs>
<clipPath id="clip0_483_8320">
<rect width="32" height="32" fill="white"/>
</clipPath>
</defs>
</svg>
