<svg width="301" height="300" viewBox="0 0 301 300" fill="none" xmlns="http://www.w3.org/2000/svg">
<path d="M156.564 300C236.291 300 300.921 295.754 300.921 290.516C300.921 285.278 236.291 281.032 156.564 281.032C76.8382 281.032 12.2073 285.278 12.2073 290.516C12.2073 295.754 76.8382 300 156.564 300Z" fill="#496E2D" fill-opacity="0.32"/>
<path d="M90.7112 5.84934L93.8301 6.86973L90.7112 7.8894C89.4397 8.30509 88.4432 9.31028 88.031 10.5928L87.0194 13.7387L86.0078 10.5928C85.5957 9.31028 84.5991 8.30509 83.3276 7.8894L80.2087 6.86973L83.3276 5.84934C84.5991 5.43365 85.5957 4.42847 86.0078 3.14591L87.0194 0L88.031 3.14591C88.4432 4.42847 89.4397 5.43365 90.7112 5.84934Z" fill="#ECECEC"/>
<path d="M281.967 209.795L285.085 210.815L281.967 211.835C280.695 212.251 279.699 213.256 279.286 214.539L278.276 217.685L277.264 214.539C276.852 213.256 275.855 212.251 274.584 211.835L271.465 210.815L274.584 209.795C275.855 209.379 276.852 208.374 277.264 207.091L278.276 203.945L279.286 207.091C279.699 208.373 280.695 209.378 281.967 209.795Z" fill="#ECECEC"/>
<path d="M11.4232 182.775L14.5421 183.796L11.4232 184.816C10.1516 185.232 9.1551 186.237 8.74299 187.519L7.73136 190.665L6.72045 187.519C6.30834 186.237 5.31179 185.232 4.04026 184.816L0.921387 183.796L4.04026 182.775C5.31179 182.359 6.30834 181.354 6.72045 180.072L7.73136 176.926L8.74299 180.072C9.1551 181.354 10.1516 182.359 11.4232 182.775Z" fill="#ECECEC"/>
<path d="M151.514 87.0859L153.325 87.6783L151.514 88.2707C150.776 88.5119 150.198 89.0956 149.958 89.8401L149.371 91.6665L148.783 89.8401C148.544 89.0956 147.965 88.5119 147.227 88.2707L145.416 87.6783L147.227 87.0859C147.965 86.8448 148.544 86.2611 148.783 85.5159L149.371 83.6895L149.958 85.5159C150.198 86.2611 150.776 86.8448 151.514 87.0859Z" fill="#ECECEC"/>
<path d="M40.9417 47.7754L42.7525 48.3678L40.9417 48.9602C40.2036 49.2013 39.625 49.785 39.3852 50.5295L38.7979 52.3559L38.2106 50.5295C37.9715 49.785 37.3928 49.2013 36.654 48.9602L34.8433 48.3678L36.654 47.7754C37.3921 47.5342 37.9707 46.9505 38.2106 46.2053L38.7979 44.3789L39.3852 46.2053C39.625 46.9498 40.2036 47.5335 40.9417 47.7754Z" fill="#ECECEC"/>
<path d="M18.1663 166.875L19.9771 167.467L18.1663 168.06C17.4283 168.301 16.8496 168.885 16.6098 169.63L16.0225 171.456L15.4352 169.63C15.1961 168.885 14.6174 168.302 13.8786 168.06L12.0679 167.467L13.8786 166.875C14.6167 166.634 15.1954 166.05 15.4352 165.305L16.0225 163.479L16.6098 165.305C16.8496 166.049 17.4283 166.633 18.1663 166.875Z" fill="#ECECEC"/>
<path d="M252.367 212.889C252.367 212.889 246.026 213.588 243.55 214.987C241.074 216.386 239.885 221.082 244.244 221.082C248.602 221.082 255.537 221.082 258.509 221.082C261.481 221.082 260.292 214.387 258.707 212.589L252.367 212.889Z" fill="#2E344B"/>
<path d="M249.462 202.776C249.462 202.776 251.075 211.509 251.523 212.942C252.21 215.137 258.31 215.022 258.853 212.596C259.655 209.015 259.655 201.736 259.655 201.736L249.462 202.776Z" fill="#D8877B"/>
<path d="M248.344 215.168C248.206 214.915 248.026 214.676 247.816 214.48C247.596 214.275 247.352 214.093 247.101 213.931C246.837 213.759 246.53 213.548 246.203 213.57C245.99 213.584 245.766 213.794 245.855 214.031C245.893 214.131 245.93 214.224 246 214.306C246.042 214.355 246.09 214.401 246.136 214.447C246.179 214.49 246.229 214.525 246.277 214.563C246.285 214.569 246.302 214.581 246.314 214.589C246.308 214.584 246.303 214.582 246.288 214.571C246.342 214.608 246.392 214.654 246.442 214.695C246.639 214.86 246.829 215.035 246.997 215.23C247.033 215.271 247.064 215.315 247.101 215.356C246.977 215.217 247.131 215.398 247.154 215.427C247.215 215.525 247.287 215.615 247.343 215.717C247.372 215.77 247.398 215.824 247.424 215.879C247.431 215.893 247.433 215.898 247.435 215.901C247.455 215.949 247.473 215.997 247.497 216.042C247.522 216.089 247.546 216.136 247.571 216.181C247.633 216.294 247.728 216.364 247.833 216.43C248.052 216.569 248.327 216.467 248.461 216.265C248.685 215.922 248.523 215.493 248.344 215.168Z" fill="#ECECEC"/>
<path d="M250.855 214.929C250.806 214.769 250.747 214.609 250.663 214.464C250.518 214.21 250.337 213.97 250.136 213.757C249.733 213.331 249.189 212.951 248.596 212.894C248.443 212.879 248.291 213.006 248.235 213.139C248.179 213.272 248.195 213.476 248.317 213.574C248.428 213.663 248.54 213.745 248.658 213.824C248.685 213.843 248.711 213.861 248.738 213.88C248.741 213.883 248.746 213.885 248.751 213.887C248.792 213.909 248.832 213.956 248.866 213.985C249.049 214.141 249.215 214.305 249.367 214.491C249.383 214.514 249.4 214.537 249.416 214.561C249.449 214.609 249.482 214.659 249.512 214.71C249.573 214.812 249.629 214.917 249.678 215.025C249.728 215.133 249.779 215.24 249.829 215.347C249.836 215.363 249.836 215.362 249.835 215.358C249.844 215.379 249.852 215.4 249.861 215.42C249.892 215.477 249.938 215.533 249.985 215.577C250.026 215.615 250.07 215.652 250.111 215.69C250.351 215.917 250.723 215.812 250.824 215.5C250.886 215.309 250.917 215.129 250.855 214.929Z" fill="#ECECEC"/>
<path d="M257.765 216.647C257.699 216.41 257.58 216.204 257.408 216.03C257.314 215.957 257.221 215.884 257.127 215.811C256.911 215.684 256.678 215.621 256.427 215.62C256.236 215.613 256.058 215.653 255.893 215.74C255.721 215.797 255.573 215.893 255.447 216.029C255.312 216.156 255.217 216.306 255.161 216.479C255.074 216.645 255.034 216.825 255.041 217.018C255.058 217.142 255.074 217.265 255.091 217.389C255.157 217.626 255.275 217.832 255.447 218.006C255.54 218.079 255.634 218.152 255.728 218.225C255.944 218.352 256.177 218.415 256.427 218.415C256.618 218.423 256.796 218.383 256.961 218.295C257.133 218.239 257.282 218.142 257.407 218.006C257.542 217.879 257.638 217.73 257.694 217.556C257.78 217.39 257.82 217.21 257.813 217.018C257.797 216.895 257.781 216.771 257.765 216.647Z" fill="#ECECEC"/>
<path d="M249.767 204.409C251.182 205.045 254.828 206.25 259.546 206.003C259.654 203.653 259.654 201.736 259.654 201.736L249.461 202.776C249.461 202.776 249.582 203.431 249.767 204.409Z" fill="#B44E50"/>
<path d="M227.399 212.889C227.399 212.889 221.058 213.588 218.582 214.987C216.106 216.386 214.917 221.082 219.275 221.082C223.634 221.082 230.569 221.082 233.541 221.082C236.512 221.082 235.324 214.387 233.739 212.589L227.399 212.889Z" fill="#2E344B"/>
<path d="M224.493 202.776C224.493 202.776 226.106 211.509 226.554 212.942C227.241 215.137 233.341 215.022 233.884 212.596C234.686 209.015 234.686 201.736 234.686 201.736L224.493 202.776Z" fill="#D8877B"/>
<path d="M223.377 215.168C223.238 214.915 223.059 214.676 222.848 214.48C222.629 214.275 222.384 214.093 222.133 213.931C221.869 213.759 221.562 213.548 221.235 213.57C221.022 213.584 220.798 213.794 220.887 214.031C220.924 214.131 220.961 214.224 221.032 214.306C221.073 214.355 221.122 214.401 221.167 214.447C221.211 214.49 221.26 214.525 221.308 214.563C221.316 214.569 221.333 214.581 221.346 214.589C221.34 214.584 221.335 214.582 221.32 214.571C221.374 214.608 221.423 214.654 221.473 214.695C221.671 214.86 221.86 215.035 222.028 215.23C222.064 215.271 222.096 215.315 222.132 215.356C222.008 215.217 222.163 215.398 222.186 215.427C222.247 215.525 222.318 215.615 222.374 215.717C222.404 215.77 222.43 215.824 222.456 215.879C222.463 215.893 222.465 215.898 222.467 215.901C222.486 215.949 222.504 215.997 222.528 216.042C222.553 216.089 222.577 216.136 222.602 216.181C222.664 216.294 222.759 216.364 222.863 216.43C223.082 216.569 223.357 216.467 223.492 216.265C223.718 215.922 223.555 215.493 223.377 215.168Z" fill="#ECECEC"/>
<path d="M225.887 214.929C225.838 214.769 225.779 214.609 225.696 214.464C225.55 214.21 225.37 213.97 225.168 213.757C224.766 213.331 224.222 212.951 223.629 212.894C223.476 212.879 223.323 213.006 223.268 213.139C223.212 213.272 223.228 213.476 223.35 213.574C223.461 213.663 223.573 213.745 223.691 213.824C223.717 213.843 223.744 213.861 223.771 213.88C223.774 213.883 223.779 213.885 223.784 213.887C223.824 213.909 223.865 213.956 223.899 213.985C224.082 214.141 224.248 214.305 224.4 214.491C224.416 214.514 224.433 214.537 224.449 214.561C224.483 214.609 224.514 214.659 224.545 214.71C224.606 214.812 224.662 214.917 224.711 215.025C224.76 215.133 224.812 215.24 224.862 215.347C224.869 215.363 224.869 215.362 224.868 215.358C224.876 215.379 224.885 215.4 224.894 215.42C224.924 215.477 224.971 215.533 225.018 215.577C225.059 215.615 225.103 215.652 225.144 215.69C225.384 215.917 225.756 215.812 225.856 215.5C225.918 215.309 225.948 215.129 225.887 214.929Z" fill="#ECECEC"/>
<path d="M232.797 216.647C232.731 216.41 232.612 216.204 232.44 216.03C232.347 215.957 232.253 215.884 232.159 215.811C231.943 215.684 231.71 215.621 231.46 215.62C231.269 215.613 231.091 215.653 230.926 215.74C230.754 215.797 230.606 215.893 230.48 216.029C230.345 216.156 230.249 216.306 230.193 216.479C230.107 216.645 230.067 216.825 230.074 217.018C230.091 217.142 230.107 217.265 230.124 217.389C230.19 217.626 230.308 217.832 230.48 218.006C230.573 218.079 230.667 218.152 230.761 218.225C230.977 218.352 231.21 218.415 231.46 218.415C231.651 218.423 231.829 218.383 231.994 218.295C232.166 218.239 232.314 218.142 232.44 218.006C232.575 217.879 232.671 217.73 232.727 217.556C232.813 217.39 232.853 217.21 232.846 217.018C232.83 216.895 232.813 216.771 232.797 216.647Z" fill="#ECECEC"/>
<path d="M224.799 204.409C226.214 205.045 229.86 206.25 234.578 206.003C234.686 203.653 234.686 201.736 234.686 201.736L224.493 202.776C224.493 202.776 224.614 203.431 224.799 204.409Z" fill="#B44E50"/>
<path d="M255.531 133.23C256.333 135.887 258.853 142.818 259.082 150.905C259.311 158.992 260.227 197.924 260.571 203.931H248.316C248.316 203.931 240.184 174.126 239.726 151.598C239.726 151.598 236.776 169.608 235.717 177.476C234.457 186.833 236.176 204.047 236.176 204.047H223.119C223.119 204.047 218.882 175.397 220.829 160.378C222.776 145.36 226.097 132.19 226.097 132.19L255.531 133.23Z" fill="black"/>
<path d="M256.445 136.153C256.071 134.924 255.741 133.927 255.531 133.23L240.777 132.709L237.893 133.577L237.951 136.523C237.951 136.523 246.654 139.03 256.445 136.153Z" fill="#2E344B"/>
<path d="M218.596 106.559C218.596 106.559 222.29 108.378 226.198 108.075C230.106 107.772 225.94 105.043 225.94 105.043L218.596 106.559Z" fill="#2E344B"/>
<path d="M227.414 106.891C227.716 106.807 226.326 112.147 225.124 114.746C224.375 116.365 218.595 124.046 218.595 124.046L213.498 120.926C213.498 120.926 218.595 112.233 219.025 111.193C219.454 110.153 220.485 102.616 220.485 102.616L225.811 101.836L227.414 106.891Z" fill="#D8877B"/>
<path d="M220.485 102.616C220.485 102.616 220.2 104.698 219.868 106.825C220.861 107.038 224.747 107.925 227 109.199C227.356 107.849 227.546 106.854 227.415 106.891L226.03 102.527L224.635 102.009L220.485 102.616Z" fill="#B44E50"/>
<path d="M247.329 87.4053C251.409 87.9738 254.673 89.273 256.563 91.266C258.453 93.259 258.968 111.801 258.109 114.313L257.136 113.764L254.931 115.872C254.931 115.872 254.845 127.135 256.649 133.461C256.649 133.461 242.39 140.046 225.382 132.248C225.382 132.248 228.732 126.442 227.787 116.652C227.637 115.097 225.984 111.02 226.069 107.122C226.069 107.122 221.087 106.168 218.596 106.558C218.596 106.558 220.829 94.9043 222.891 92.219C224.952 89.533 229.505 88.1468 231.223 87.7138C232.941 87.2807 236.119 88.3199 236.119 88.3199L243.076 87.973L247.329 87.4053Z" fill="#FFC600"/>
<path d="M256.292 132.043C256.246 131.837 256.202 131.629 256.159 131.418C254.761 131.883 253.355 132.312 251.917 132.657C249.787 133.168 247.631 133.528 245.451 133.738C241.088 134.16 236.671 134.013 232.322 133.498C230.205 133.247 228.105 132.895 226.008 132.522C226.567 132.767 227.122 132.997 227.674 133.213C231.06 133.954 234.545 134.333 237.987 134.471C242.436 134.65 246.924 134.31 251.288 133.415C252.973 133.068 254.658 132.619 256.292 132.043Z" fill="#2E344B"/>
<path d="M206.283 121.331L237.008 146.946C238.66 148.323 241.092 148.154 242.541 146.561L243.062 145.988C244.525 144.379 244.466 141.892 242.929 140.356L214.644 112.089L206.283 121.331Z" fill="#2E344B"/>
<path d="M243.407 63.1031C243.407 63.1031 244.206 57.7013 250.538 57.392C256.87 57.0828 259.394 61.906 259.915 66.6893C260.437 71.4726 261.076 73.9819 262.598 74.9574C262.598 74.9574 256.459 80.226 251.486 74.0276C246.513 67.8292 243.407 63.1031 243.407 63.1031Z" fill="#5F2A3D"/>
<path d="M247.863 57.9053C243.969 59.3204 243.407 63.1028 243.407 63.1028C243.407 63.1028 246.389 67.6378 251.182 73.645C252.048 73.503 252.721 72.7158 253.062 70.9922C254.52 63.625 249.786 59.3182 247.863 57.9053Z" fill="#2E344B"/>
<path d="M233.258 84.0272C229.285 81.2542 227.41 81.7619 226.613 71.3096C225.816 60.8572 242.056 52.0648 249.903 62.0934C254.838 68.3997 255.27 79.7124 247.328 82.4731C238.433 85.5646 233.258 84.0272 233.258 84.0272Z" fill="#5F2A3D"/>
<path d="M192.54 126.472C207.578 126.472 219.77 114.175 219.77 99.0059C219.77 83.8369 207.578 71.54 192.54 71.54C177.501 71.54 165.31 83.8369 165.31 99.0059C165.31 114.175 177.501 126.472 192.54 126.472Z" fill="#2E344B"/>
<path d="M192.539 119.705C203.873 119.705 213.06 110.437 213.06 99.0056C213.06 87.5739 203.873 78.3066 192.539 78.3066C181.206 78.3066 172.018 87.5739 172.018 99.0056C172.018 110.437 181.206 119.705 192.539 119.705Z" fill="#99A4AF"/>
<path d="M234.401 83.2663C234.401 83.2663 234.344 84.7683 234.057 85.9813C233.771 87.1944 231.223 87.7143 231.223 87.7143C231.223 87.7143 232.969 92.0465 236.978 92.8554L238.352 98.6895L240.299 93.0864C240.299 93.0864 244.981 92.3738 247.329 87.4058C247.329 87.4058 246.426 87.3102 245.224 86.7903C244.021 86.2703 244.079 82.7471 244.079 82.7471L234.401 83.2663Z" fill="#D8877B"/>
<path d="M209.834 128.147C209.083 125.434 209.834 123.642 210.464 122.775C211.094 121.909 211.609 123.006 211.666 123.353C211.724 123.7 211.552 126.01 211.552 126.01C211.552 126.01 212.01 124.566 212.926 122.949C213.842 121.331 214.873 120.811 215.503 122.025C215.503 122.025 216.419 121.505 216.992 122.891C216.992 122.891 218.194 123.122 217.965 124.739C217.965 124.739 218.767 125.432 218.481 126.587C218.194 127.742 216.934 129.071 216.419 130.861C215.904 132.653 210.854 131.829 209.834 128.147Z" fill="#D8877B"/>
<path d="M258.109 114.313C256.348 114.79 248.703 112.883 247.715 112.32C247.715 112.32 248.252 111.778 249.004 111.627L253.643 112.818L255.533 113.273L257.136 113.764L258.109 114.313Z" fill="#2E344B"/>
<path d="M249.004 111.627C249.004 111.627 248.202 114.602 246.942 116.392C245.682 118.183 233.943 130.284 233.313 130.804C232.684 131.324 228.56 131.151 227.358 131.902C226.155 132.653 227.129 133.461 228.045 133.404C228.961 133.346 230.507 133.577 230.507 133.577C230.507 133.577 229.534 135.31 228.961 135.887C228.388 136.465 226.671 137.331 226.04 137.504C225.411 137.677 225.525 139.121 226.269 139.064C226.269 139.064 225.525 140.393 227.071 140.912C227.071 140.912 226.727 141.778 228.216 141.894C228.216 141.894 228.274 142.298 229.877 142.183C231.48 142.067 233.485 139.988 234.344 139.122C235.202 138.256 236.691 135.541 237.092 135.252C237.493 134.963 250.664 124.046 252.668 121.735C254.673 119.424 257.135 113.764 257.135 113.764C257.135 113.764 252.955 110.818 249.004 111.627Z" fill="#D8877B"/>
<path d="M245.905 87.0507C245.692 86.9776 245.466 86.8943 245.224 86.7893C244.021 86.2693 244.079 82.7461 244.079 82.7461L238.878 83.0256L235.701 83.5369L234.29 84.6029C234.268 84.7833 234.242 84.973 234.211 85.1649C235.283 86.1462 239.331 89.2298 245.905 87.0507Z" fill="#B44E50"/>
<path d="M248.083 72.4077C248.083 72.4077 250.513 70.9557 252.042 73.4027C253.57 75.8498 251.078 77.9326 249.032 77.9318C249.032 77.9318 247.1 86.5672 239.702 86.8887C232.339 87.2088 229.171 79.6033 228.575 73.9748C228.575 73.9748 231.889 72.3946 232.256 70.5834C232.624 68.7722 237.154 68.5752 239.414 65.2461C239.414 65.2461 241.158 68.581 243.301 68.757C245.443 68.9323 247.586 71.1729 248.083 72.4077Z" fill="#D8877B"/>
<path d="M243.3 68.756C241.157 68.58 239.413 65.2451 239.413 65.2451C237.153 68.5743 232.623 68.7712 232.256 70.5824C231.888 72.3937 228.575 73.9739 228.575 73.9739C228.595 74.1629 228.618 74.3541 228.644 74.5467C229.931 74.2469 232.254 72.5979 232.791 71.3595C233.392 69.9734 237.064 69.3448 239.211 66.8326C239.211 66.8326 240.8 69.3021 243.12 69.5621C244.929 69.7648 246.798 71.2523 247.783 71.8426C246.988 70.589 245.146 68.9081 243.3 68.756Z" fill="#B44E50"/>
<path d="M251.07 73.8104C251.148 73.6164 250.967 73.4107 250.833 73.2963C250.674 73.1608 250.504 73.0522 250.304 72.9899C249.939 72.877 249.501 72.9494 249.242 73.2499C249.003 73.5266 248.957 73.9097 248.973 74.2638C248.994 74.7106 249.051 75.1596 249.121 75.6007C249.16 75.8454 249.529 75.9352 249.682 75.7498C249.831 75.5717 250.178 75.3363 250.378 75.5905C250.463 75.6984 250.41 75.8643 250.355 75.9714C250.307 76.0634 250.238 76.1416 250.189 76.2329C250.134 76.3336 250.101 76.4415 250.076 76.5523C250.041 76.7022 250.174 76.8608 250.332 76.8108C250.677 76.7022 250.89 76.4458 251.006 76.104C251.118 75.7759 251.063 75.4174 250.84 75.1517C250.546 74.8019 250.102 74.7606 249.718 74.9098C249.7 74.7382 249.672 74.5672 249.665 74.3934C249.656 74.1783 249.629 73.8872 249.773 73.717C250.11 73.3216 250.838 74.3826 251.07 73.8104Z" fill="#B44E50"/>
<path d="M249.003 111.627C249.003 111.627 248.957 111.798 248.871 112.077C249.524 112.286 253.503 112.954 256.511 115.128C256.898 114.309 257.134 113.764 257.134 113.764C257.134 113.764 252.954 110.818 249.003 111.627Z" fill="#B44E50"/>
<path d="M231.567 135.93C231.342 136.036 231.182 136.291 231.023 136.478C230.843 136.69 230.663 136.904 230.469 137.102C230.108 137.47 229.701 137.795 229.261 138.061C228.391 138.588 227.435 138.966 226.429 139.114C226.321 139.13 226.346 139.314 226.455 139.307C227.507 139.235 228.542 138.935 229.432 138.357C229.864 138.077 230.271 137.755 230.634 137.388C230.85 137.171 231.053 136.942 231.254 136.711C231.427 136.513 231.654 136.322 231.751 136.073C231.795 135.959 231.655 135.889 231.567 135.93Z" fill="#B44E50"/>
<path d="M232.73 137.842C232.325 138.188 231.956 138.566 231.529 138.889C231.107 139.208 230.655 139.489 230.187 139.737C229.251 140.236 228.232 140.575 227.198 140.8C227.059 140.831 227.121 141.033 227.255 141.011C228.332 140.839 229.357 140.477 230.329 139.982C230.814 139.735 231.28 139.45 231.727 139.139C232.165 138.834 232.629 138.502 232.989 138.103C233.15 137.926 232.909 137.689 232.73 137.842Z" fill="#B44E50"/>
<path d="M232.745 139.495C232.396 139.609 232.115 139.913 231.816 140.122C231.494 140.349 231.159 140.558 230.813 140.744C230.466 140.93 230.11 141.097 229.743 141.241C229.367 141.389 228.97 141.492 228.598 141.648C228.49 141.693 228.485 141.898 228.628 141.879C229.02 141.827 229.42 141.678 229.787 141.533C230.164 141.383 230.533 141.213 230.89 141.021C231.248 140.83 231.596 140.62 231.93 140.391C232.238 140.178 232.651 139.943 232.822 139.598C232.849 139.548 232.806 139.476 232.745 139.495Z" fill="#B44E50"/>
<path d="M215.302 122.123C215.123 122.118 215 122.3 214.895 122.427C214.76 122.589 214.638 122.766 214.519 122.939C214.263 123.313 214.037 123.707 213.836 124.115C213.645 124.503 213.472 124.902 213.324 125.309C213.248 125.517 213.18 125.727 213.117 125.939C213.063 126.124 212.95 126.38 213.024 126.567C213.067 126.674 213.185 126.715 213.275 126.633C213.411 126.51 213.429 126.287 213.475 126.115C213.532 125.901 213.596 125.69 213.666 125.481C213.807 125.066 213.974 124.661 214.173 124.271C214.363 123.9 214.577 123.541 214.806 123.194C214.927 123.009 215.061 122.834 215.187 122.654C215.284 122.516 215.426 122.369 215.39 122.191C215.382 122.151 215.34 122.124 215.302 122.123Z" fill="#B44E50"/>
<path d="M216.866 123.102C216.687 123.101 216.567 123.246 216.447 123.366C216.305 123.508 216.174 123.661 216.052 123.821C215.81 124.136 215.606 124.478 215.435 124.837C215.254 125.218 215.098 125.618 214.984 126.025C214.923 126.245 214.868 126.467 214.817 126.689C214.767 126.904 214.693 127.134 214.693 127.356C214.693 127.458 214.84 127.505 214.89 127.41C214.981 127.233 215.019 127.03 215.075 126.841C215.133 126.646 215.192 126.452 215.257 126.259C215.394 125.848 215.536 125.436 215.721 125.044C215.88 124.709 216.066 124.386 216.286 124.087C216.396 123.937 216.516 123.795 216.645 123.66C216.762 123.538 216.946 123.426 216.979 123.25C216.993 123.176 216.948 123.102 216.866 123.102Z" fill="#B44E50"/>
<path d="M217.824 124.847C217.658 124.83 217.548 124.966 217.442 125.077C217.322 125.205 217.217 125.346 217.119 125.491C216.905 125.804 216.732 126.144 216.584 126.492C216.441 126.831 216.318 127.177 216.207 127.527C216.103 127.85 215.887 128.294 216.037 128.627C216.085 128.735 216.24 128.673 216.243 128.571C216.25 128.374 216.263 128.21 216.324 128.021C216.378 127.851 216.434 127.683 216.492 127.514C216.606 127.18 216.725 126.847 216.868 126.524C217.002 126.222 217.157 125.928 217.341 125.655C217.442 125.506 217.554 125.364 217.671 125.227C217.761 125.122 217.863 125.035 217.863 124.886C217.863 124.864 217.846 124.849 217.824 124.847Z" fill="#B44E50"/>
<path d="M228.087 97.2512C227.577 97.8805 227.353 98.7286 227.103 99.4882C226.818 100.351 226.595 101.237 226.407 102.127C226.231 102.96 226.091 103.799 225.996 104.646C225.911 105.411 225.67 106.436 225.986 107.168C226.014 107.232 226.115 107.225 226.144 107.168C226.313 106.848 226.332 106.485 226.362 106.13C226.398 105.69 226.439 105.25 226.492 104.811C226.599 103.931 226.738 103.053 226.915 102.184C227.087 101.346 227.302 100.519 227.532 99.6954C227.752 98.9067 228.117 98.1123 228.175 97.2903C228.18 97.2447 228.116 97.2157 228.087 97.2512Z" fill="#2E344B"/>
<path d="M246.694 92.2897C247.447 91.5198 248.041 90.6124 248.455 89.6152C248.66 89.1213 248.84 88.605 248.914 88.0727C248.93 87.9488 248.952 87.8192 248.974 87.6874C248.847 87.6621 248.718 87.6382 248.588 87.6143C248.562 87.7511 248.532 87.8873 248.487 88.0213C248.323 88.5108 248.176 89.0011 247.959 89.4718C247.538 90.3836 246.964 91.2302 246.255 91.9392C245.547 92.6467 244.705 93.2268 243.799 93.6425C243.351 93.8474 242.888 93.9988 242.415 94.1291C242.169 94.1972 241.922 94.2595 241.671 94.308C241.559 94.3297 241.457 94.3413 241.363 94.3717C241.263 94.3645 241.158 94.4101 241.116 94.5318C240.325 96.8137 239.387 99.0167 238.229 101.131C237.804 100.049 237.495 98.9327 237.195 97.8066C237.026 97.1729 236.872 96.5356 236.727 95.8962C236.594 95.3096 236.519 94.6151 236.253 94.0748C236.247 94.0639 236.237 94.0632 236.231 94.0545C236.239 94.0169 236.24 93.9756 236.223 93.9278C236.133 93.6541 235.625 93.6005 235.389 93.5201C234.092 93.0776 232.895 92.3491 231.909 91.3909C230.977 90.4842 230.207 89.3639 229.639 88.1748C229.564 88.1987 229.491 88.2226 229.414 88.2486C230.095 90.6008 231.887 92.5315 234.063 93.6157C234.352 93.7598 234.648 93.8858 234.952 93.9951C235.22 94.0915 235.538 94.2233 235.834 94.2428C235.832 94.5492 235.917 94.8598 235.974 95.1589C236.04 95.5051 236.109 95.8491 236.185 96.1931C236.325 96.8333 236.469 97.4742 236.638 98.1079C236.979 99.3911 237.446 100.648 237.977 101.864C238.056 102.044 238.33 102.017 238.417 101.864C239.684 99.6149 240.77 97.228 241.538 94.7563C241.873 94.7722 242.291 94.6534 242.544 94.6006C243.065 94.4919 243.575 94.3087 244.062 94.0958C245.044 93.6656 245.941 93.0588 246.694 92.2897Z" fill="#2E344B"/>
<path d="M249.714 100.989C249.705 100.963 249.662 100.948 249.648 100.98C249.319 101.734 249.377 102.69 249.305 103.502C249.217 104.484 249.092 105.461 248.949 106.437C248.671 108.325 248.194 110.163 247.83 112.033C247.785 112.264 248.097 112.349 248.178 112.13C248.842 110.33 249.181 108.385 249.464 106.492C249.599 105.586 249.694 104.673 249.767 103.76C249.803 103.3 249.83 102.842 249.839 102.381C249.847 101.899 249.884 101.446 249.714 100.989Z" fill="#2E344B"/>
<path d="M244.156 117.538C243.61 117.726 243.131 118.042 242.624 118.318C242.056 118.625 241.469 118.902 240.867 119.136C239.697 119.589 238.475 119.909 237.224 120.003C234.885 120.178 232.395 119.565 230.499 118.146C230.476 118.129 230.448 118.166 230.469 118.186C232.301 119.857 234.709 120.558 237.152 120.424C238.436 120.353 239.715 120.068 240.916 119.605C241.508 119.377 242.086 119.113 242.647 118.816C243.224 118.51 243.814 118.196 244.252 117.702C244.311 117.634 244.254 117.504 244.156 117.538Z" fill="#2E344B"/>
<path d="M244.915 115.881C244.474 116.186 244.039 116.498 243.57 116.761C243.307 116.907 243.033 117.028 242.768 117.168C242.519 117.298 242.219 117.39 242.009 117.581C241.997 117.592 242.008 117.608 242.021 117.61C242.273 117.644 242.536 117.546 242.776 117.476C243.023 117.403 243.26 117.301 243.496 117.195C243.982 116.975 244.464 116.722 244.897 116.409C245.052 116.296 245.421 116.094 245.399 115.865C245.373 115.593 245.025 115.805 244.915 115.881Z" fill="#2E344B"/>
<path d="M240.009 151.104C240.003 150.701 240.003 150.298 240.003 149.895C240.003 149.532 240.097 149.047 239.921 148.719C239.842 148.571 239.64 148.591 239.557 148.719C239.448 148.888 239.445 149.095 239.435 149.291C239.425 149.507 239.416 149.725 239.41 149.941C239.397 150.344 239.397 150.747 239.402 151.15C239.414 151.976 239.415 152.816 239.621 153.619C239.682 153.856 239.998 153.783 240.02 153.564C240.101 152.747 240.021 151.923 240.009 151.104Z" fill="#2E344B"/>
<path d="M235.869 164.016C236.206 162.349 236.57 160.687 236.969 159.034C237.379 157.333 237.896 155.63 238.184 153.904C238.194 153.845 238.106 153.793 238.077 153.859C237.494 155.243 237.138 156.73 236.748 158.179C236.343 159.682 235.992 161.204 235.666 162.726C235.014 165.773 234.478 168.848 234.065 171.938C233.244 178.064 232.841 184.297 232.985 190.479C233.063 193.829 233.251 197.201 233.721 200.521C230.493 200.512 227.265 200.502 224.037 200.509C223.571 200.509 223.103 200.506 222.636 200.505C222.663 200.716 222.69 200.917 222.715 201.111C226.41 201.118 230.104 201.108 233.798 201.095C234.505 201.093 235.211 201.092 235.917 201.09C235.903 200.907 235.888 200.722 235.873 200.525C235.323 200.523 234.775 200.524 234.226 200.522C233.963 197.573 233.693 194.629 233.585 191.668C233.472 188.587 233.454 185.491 233.575 182.41C233.818 176.239 234.644 170.064 235.869 164.016Z" fill="#2E344B"/>
<path d="M260.425 200.492C259.661 200.494 258.897 200.496 258.133 200.498C258.163 200.461 258.185 200.413 258.182 200.349C258.017 196.26 257.81 192.177 257.78 188.084C257.766 186.07 257.78 184.054 257.851 182.042C257.924 180.01 258.119 177.985 258.175 175.953C258.282 171.956 257.54 168.015 257.364 164.032C257.276 162.043 257.367 160.053 257.378 158.063C257.389 156.079 257.322 154.094 257.167 152.116C256.825 147.741 256.159 143.296 254.817 139.111C254.771 138.967 254.56 139.026 254.593 139.173C255.462 143.061 256.265 146.94 256.634 150.913C256.815 152.859 256.918 154.813 256.931 156.766C256.944 158.75 256.84 160.734 256.864 162.718C256.912 166.706 257.693 170.644 257.722 174.632C257.737 176.631 257.558 178.626 257.446 180.62C257.334 182.631 257.261 184.646 257.256 186.661C257.245 191.224 257.434 195.793 257.7 200.347C257.704 200.412 257.73 200.46 257.765 200.498C255.282 200.506 252.798 200.514 250.316 200.519C249.356 200.52 248.396 200.523 247.437 200.525C247.486 200.724 247.534 200.915 247.581 201.098C251.153 201.105 254.725 201.112 258.298 201.118C259.015 201.12 259.733 201.122 260.45 201.124C260.441 200.921 260.433 200.711 260.425 200.492Z" fill="#2E344B"/>
<path d="M235.003 76.3077C234.962 75.7928 234.751 75.2946 234.36 75.0918C234.246 75.0324 234.125 75.0049 233.998 75.0085C233.912 74.9926 233.828 74.9991 233.745 75.0273C233.619 75.0426 233.504 75.0875 233.4 75.1628C233.339 75.2156 233.279 75.2685 233.218 75.3214C233.109 75.4452 233.038 75.5864 233.004 75.7457C232.847 76.4837 232.952 77.9835 234.041 77.8553C234.289 77.8256 234.542 77.7271 234.703 77.5309C234.937 77.2434 235.039 76.769 235.003 76.3077Z" fill="#2E344B"/>
<path d="M242.011 76.4874C241.971 75.9725 241.759 75.4743 241.369 75.2715C241.254 75.2121 241.134 75.1846 241.007 75.1882C240.921 75.1723 240.837 75.1788 240.754 75.207C240.628 75.2222 240.513 75.2671 240.409 75.3425C240.348 75.3953 240.287 75.4482 240.227 75.5011C240.118 75.6249 240.046 75.7661 240.012 75.9254C239.856 76.6634 239.961 78.1632 241.049 78.035C241.298 78.0053 241.55 77.9076 241.711 77.7106C241.945 77.4231 242.047 76.9487 242.011 76.4874Z" fill="#2E344B"/>
<path d="M237.522 80.241C237.421 80.144 237.324 80.0557 237.209 79.9745C237.104 79.9014 236.992 79.8413 236.898 79.7529C236.71 79.5777 236.597 79.3401 236.785 79.1229C237.005 78.8694 237.174 78.6 237.286 78.2814C237.383 78.0069 237.499 77.5898 237.355 77.3175C237.293 77.1994 237.121 77.2088 237.057 77.3175C236.967 77.4695 236.962 77.6702 236.913 77.8396C236.866 78.0047 236.798 78.1604 236.711 78.3082C236.625 78.4552 236.526 78.587 236.41 78.7115C236.268 78.8651 236.148 79.0215 236.126 79.2373C236.091 79.5791 236.27 79.9137 236.523 80.1302C236.647 80.2367 236.786 80.3345 236.935 80.4018C237.092 80.4728 237.243 80.4931 237.413 80.5025C237.546 80.5119 237.614 80.3308 237.522 80.241Z" fill="#B44E50"/>
<path d="M240.857 75.4686C240.833 75.3854 240.791 75.3122 240.73 75.2507L240.631 75.1732C240.555 75.1283 240.472 75.1058 240.384 75.1058C240.317 75.1029 240.253 75.1174 240.195 75.1486C240.134 75.1681 240.082 75.2029 240.037 75.2507C239.99 75.2956 239.956 75.3484 239.936 75.41C239.905 75.4687 239.892 75.5324 239.894 75.6005C239.9 75.6446 239.905 75.6881 239.911 75.7315C239.934 75.8155 239.976 75.888 240.037 75.9495L240.136 76.027C240.212 76.0719 240.294 76.0944 240.383 76.0944C240.45 76.0972 240.513 76.0828 240.572 76.0516C240.633 76.0314 240.685 75.9973 240.729 75.9495C240.777 75.9046 240.811 75.8518 240.83 75.7909C240.861 75.7323 240.875 75.6685 240.872 75.6005C240.868 75.5556 240.862 75.5121 240.857 75.4686Z" fill="#ECECEC"/>
<path d="M233.375 78.4911C233.375 79.0205 232.723 79.4499 231.92 79.4499C231.117 79.4499 230.465 79.0205 230.465 78.4911C230.465 77.9617 231.117 77.5322 231.92 77.5322C232.724 77.5322 233.375 77.9617 233.375 78.4911Z" fill="#D80027"/>
<path d="M244.779 78.7001C244.779 79.2294 244.128 79.6589 243.324 79.6589C242.521 79.6589 241.869 79.2294 241.869 78.7001C241.869 78.1707 242.52 77.7412 243.324 77.7412C244.128 77.7412 244.779 78.1707 244.779 78.7001Z" fill="#D80027"/>
<path d="M242.309 74.6043C242.258 74.5529 242.17 74.5225 242.1 74.5486C242.083 74.5544 242.067 74.5609 242.051 74.5681C242.032 74.5739 242.015 74.5833 242.001 74.5978C241.991 74.6051 241.982 74.6123 241.973 74.6203C241.97 74.6232 241.967 74.6268 241.963 74.6304C241.95 74.6449 241.935 74.6594 241.922 74.6746L241.839 74.7629C241.815 74.789 241.792 74.8173 241.777 74.8498C241.769 74.868 241.761 74.8853 241.752 74.9034C241.748 74.9121 241.744 74.9215 241.74 74.9302C241.738 74.9353 241.735 74.9404 241.733 74.9454C241.729 74.9534 241.726 74.9614 241.723 74.9701C241.715 74.9838 241.711 74.999 241.711 75.0157C241.705 75.057 241.713 75.0975 241.733 75.1344C241.745 75.1569 241.766 75.1815 241.788 75.1924C241.797 75.1967 241.805 75.2004 241.815 75.204C241.86 75.2235 241.909 75.2235 241.955 75.204C241.979 75.1938 242.002 75.1822 242.025 75.1707C242.042 75.1627 242.058 75.154 242.074 75.146C242.107 75.1294 242.135 75.1055 242.161 75.0794C242.188 75.0526 242.215 75.0258 242.242 74.999C242.256 74.9845 242.271 74.9708 242.285 74.9563C242.288 74.9534 242.291 74.9498 242.294 74.9469C242.306 74.9317 242.318 74.9157 242.33 74.9005L242.334 74.8955C242.348 74.8716 242.356 74.844 242.365 74.818C242.389 74.7434 242.362 74.6565 242.309 74.6043Z" fill="#D80027"/>
<path d="M242.672 75.4589C242.668 75.448 242.663 75.4372 242.659 75.4263C242.65 75.4104 242.638 75.3973 242.623 75.3879C242.615 75.3792 242.605 75.3734 242.594 75.3705C242.577 75.3618 242.56 75.3582 242.542 75.359L242.476 75.351C242.465 75.3495 242.455 75.3481 242.443 75.3466C242.42 75.3437 242.397 75.3481 242.375 75.3524C242.354 75.3561 242.333 75.3589 242.312 75.3647C242.284 75.3727 242.259 75.3901 242.234 75.4046C242.165 75.443 242.165 75.5494 242.234 75.5878C242.258 75.6016 242.283 75.6168 242.31 75.6262C242.33 75.6334 242.353 75.6356 242.375 75.6392C242.397 75.6436 242.418 75.6479 242.44 75.645C242.451 75.6436 242.462 75.6421 242.473 75.6407L242.542 75.632C242.554 75.6305 242.565 75.6283 242.577 75.6269C242.595 75.6226 242.61 75.6146 242.623 75.6023C242.646 75.5849 242.666 75.5595 242.672 75.5313C242.675 75.5197 242.678 75.506 242.678 75.4951C242.677 75.4828 242.675 75.4705 242.672 75.4589Z" fill="#D80027"/>
<path d="M233.61 75.3036C233.586 75.2196 233.544 75.1472 233.483 75.0856L233.384 75.0081C233.308 74.9632 233.226 74.9408 233.137 74.9408C233.07 74.9379 233.007 74.9524 232.948 74.9835C232.887 75.0031 232.835 75.0371 232.791 75.0856C232.743 75.1305 232.709 75.1834 232.689 75.245C232.658 75.3036 232.645 75.3673 232.647 75.4354C232.653 75.4796 232.658 75.523 232.664 75.5665C232.687 75.6505 232.73 75.7229 232.79 75.7845L232.889 75.862C232.965 75.9069 233.048 75.9293 233.136 75.9293C233.203 75.9322 233.267 75.9177 233.325 75.8866C233.386 75.867 233.438 75.833 233.482 75.7845C233.53 75.7396 233.564 75.6867 233.583 75.6259C233.614 75.5672 233.628 75.5035 233.626 75.4354C233.621 75.3912 233.615 75.3478 233.61 75.3036Z" fill="#ECECEC"/>
<path d="M232.519 74.6439C232.513 74.6308 232.504 74.6185 232.494 74.6091C232.474 74.5903 232.452 74.5772 232.426 74.5693L232.448 74.5787C232.428 74.57 232.41 74.5577 232.392 74.5454C232.387 74.541 232.382 74.5374 232.377 74.5323C232.364 74.5186 232.349 74.5041 232.332 74.4947C232.326 74.4918 232.32 74.4882 232.314 74.4853C232.293 74.4729 232.278 74.457 232.253 74.4512C232.236 74.4476 232.219 74.4476 232.201 74.4454C232.204 74.4462 232.206 74.4462 232.209 74.4462C232.182 74.4425 232.157 74.4505 232.137 74.4701C232.135 74.4722 232.133 74.4744 232.13 74.4766C232.122 74.4867 232.114 74.4968 232.107 74.5077C232.099 74.5186 232.094 74.5273 232.091 74.5432C232.088 74.5562 232.085 74.5722 232.087 74.5852C232.089 74.6113 232.092 74.6373 232.099 74.6627C232.1 74.6663 232.102 74.6692 232.102 74.6728C232.112 74.7011 232.124 74.7235 232.144 74.7467C232.149 74.7525 232.155 74.7583 232.161 74.7641C232.191 74.7945 232.227 74.822 232.265 74.8423C232.271 74.8459 232.278 74.8488 232.285 74.8517C232.315 74.8655 232.347 74.8821 232.382 74.8807C232.425 74.8785 232.468 74.8633 232.497 74.8307C232.522 74.8032 232.545 74.7677 232.541 74.7286C232.538 74.6989 232.535 74.6721 232.519 74.6439Z" fill="#D80027"/>
<path d="M232.198 75.4067C232.175 75.3922 232.152 75.377 232.125 75.3712C232.097 75.3647 232.068 75.3632 232.04 75.3603C232.007 75.3567 231.974 75.3553 231.941 75.3545C231.85 75.3538 231.754 75.3611 231.673 75.4067C231.612 75.4414 231.576 75.524 231.598 75.5921C231.621 75.6638 231.681 75.7087 231.755 75.713C231.77 75.7137 231.784 75.7108 231.798 75.7101C231.827 75.7079 231.856 75.7058 231.884 75.7C231.906 75.6949 231.928 75.692 231.95 75.6884C231.977 75.6855 232.004 75.6826 232.032 75.6811C232.049 75.6804 232.066 75.6811 232.083 75.6804C232.114 75.6797 232.137 75.6717 232.164 75.6623C232.217 75.6435 232.255 75.6044 232.263 75.5465C232.271 75.4892 232.245 75.4378 232.198 75.4067Z" fill="#D80027"/>
<path d="M233.993 72.2779C234.053 72.2018 234.096 72.1316 234.11 72.0316C234.122 71.9418 234.112 71.8354 234.059 71.7579C234.025 71.7072 233.987 71.6507 233.947 71.6087C233.861 71.5211 233.761 71.4812 233.648 71.4392C233.496 71.3827 233.31 71.4124 233.157 71.4414C232.947 71.4812 232.743 71.5624 232.557 71.6659C232.379 71.7651 232.193 71.8933 232.059 72.0476C231.887 72.2467 231.699 72.5321 231.701 72.8036C231.706 73.186 232.111 73.4047 232.436 73.2287C232.582 73.1498 232.687 73.0006 232.818 72.8978C232.78 72.9275 232.742 72.9572 232.704 72.9861C232.763 72.9405 232.822 72.8934 232.88 72.8471C232.982 72.7703 233.093 72.7095 233.208 72.6552C233.304 72.619 233.399 72.5835 233.501 72.5617C233.603 72.54 233.698 72.506 233.79 72.4553C233.865 72.414 233.931 72.3604 233.982 72.2923C233.982 72.2923 233.987 72.2865 233.987 72.2851C233.981 72.2923 233.98 72.2938 233.993 72.2779Z" fill="#5F2A3D"/>
<path d="M233.986 72.2855C234.002 72.2681 234.052 72.2059 234.033 72.224C234.02 72.2363 233.993 72.2754 233.986 72.2855Z" fill="#5F2A3D"/>
<path d="M242.28 72.9863C242.239 73.003 242.247 73.0001 242.28 72.9863V72.9863Z" fill="#5F2A3D"/>
<path d="M240.233 72.1716C240.231 72.1702 240.23 72.1688 240.229 72.1673C240.221 72.1615 240.215 72.1579 240.207 72.1514C240.209 72.1528 240.221 72.1622 240.233 72.1716Z" fill="#5F2A3D"/>
<path d="M242.413 72.1724C242.201 71.8197 241.821 71.5938 241.439 71.4743C241.251 71.4156 241.051 71.3801 240.853 71.3809C240.603 71.3823 240.347 71.4091 240.162 71.5967C239.986 71.7763 240.047 72.0269 240.228 72.1673C240.281 72.2079 240.325 72.2362 240.391 72.26C240.424 72.2716 240.457 72.2811 240.491 72.2883C240.565 72.3049 240.638 72.3202 240.71 72.3426C240.775 72.3629 240.838 72.3875 240.902 72.4107C240.936 72.423 240.969 72.4382 241.004 72.4498C240.845 72.3955 240.969 72.436 241.012 72.4585C241.144 72.5251 241.273 72.6069 241.394 72.6917C241.399 72.6953 241.403 72.6996 241.408 72.704C241.401 72.6967 241.399 72.6953 241.389 72.6859C241.441 72.7373 241.505 72.7829 241.565 72.8242C241.623 72.8633 241.68 72.9068 241.743 72.9357C241.804 72.964 241.864 72.9966 241.926 73.0168C241.969 73.0306 242.026 73.04 242.07 73.04C242.149 73.04 242.208 73.0118 242.278 72.9857C242.288 72.9813 242.293 72.9792 242.309 72.9727L242.28 72.985C242.279 72.985 242.279 72.985 242.278 72.9857C242.287 72.9828 242.294 72.9799 242.303 72.977C242.306 72.9756 242.31 72.9727 242.313 72.9712C242.316 72.9705 242.315 72.9705 242.317 72.9698C242.339 72.9553 242.364 72.935 242.383 72.9169C242.591 72.7221 242.548 72.3962 242.413 72.1724Z" fill="#5F2A3D"/>
<path d="M241.409 72.7041C241.448 72.7352 241.483 72.7743 241.409 72.7041V72.7041Z" fill="#5F2A3D"/>
<path d="M240.233 72.1719C240.234 72.1733 240.236 72.1755 240.237 72.1762C240.27 72.2009 240.252 72.1871 240.233 72.1719Z" fill="#5F2A3D"/>
<path d="M238.192 81.5155C237.914 81.3482 237.54 81.2873 237.222 81.3134C236.836 81.346 236.474 81.4727 236.183 81.7363C235.986 81.9152 236.238 82.2266 236.461 82.0992C236.703 81.9609 236.973 81.8747 237.251 81.8732C237.325 81.8725 237.398 81.8783 237.472 81.8863C237.479 81.887 237.539 81.8928 237.508 81.8892C237.48 81.8855 237.528 81.8928 237.528 81.8928C237.572 81.9007 237.615 81.9087 237.658 81.9196C237.831 81.9623 237.946 82.0253 238.083 82.0746C238.17 82.1057 238.275 82.1426 238.364 82.1035C238.378 82.0977 238.413 82.0695 238.426 82.0601C238.45 82.0376 238.466 82.0224 238.48 81.9898C238.565 81.7892 238.343 81.6067 238.192 81.5155Z" fill="#B44E50"/>
<path d="M238.426 82.0598C238.422 82.0634 238.422 82.0671 238.417 82.0707C238.436 82.054 238.434 82.0548 238.426 82.0598Z" fill="#B44E50"/>
<path d="M188.714 84.5082C188.569 83.4183 187.536 82.2611 186.34 82.3943C185.395 82.4993 184.616 82.755 183.776 83.2155C183.366 83.4408 182.966 83.6863 182.578 83.9463C181.612 84.5922 180.681 85.323 179.857 86.1456C179.057 86.9437 178.307 87.8424 177.809 88.8628C177.526 89.4407 177.291 90.0411 177.124 90.6632C176.983 91.1889 176.946 91.7039 177.088 92.2376C177.31 93.0661 178.068 93.8851 178.997 93.8134C179.632 93.7642 180.162 93.5361 180.622 93.0929C180.883 92.8416 181.056 92.5323 181.251 92.2332C181.472 91.8965 181.714 91.5713 181.956 91.2498C182.197 90.9427 182.439 90.6371 182.675 90.3257C182.547 90.493 182.419 90.6603 182.291 90.8276C182.931 90.0027 183.672 89.2727 184.479 88.6173C185.133 88.1292 185.828 87.6715 186.556 87.3044C186.696 87.258 186.833 87.2066 186.983 87.1834C187.518 87.1009 188.182 86.5316 188.427 86.0631C188.684 85.5699 188.787 85.063 188.714 84.5082Z" fill="#ECECEC"/>
<path d="M196.652 83.2691C196.652 83.0787 196.604 82.9012 196.509 82.7368C196.46 82.558 196.37 82.403 196.24 82.2712C196.19 82.1741 196.123 82.0923 196.04 82.0271C195.898 81.9163 195.756 81.8055 195.613 81.6947C195.585 81.6752 195.557 81.6556 195.529 81.6368C195.323 81.5021 195.089 81.4087 194.852 81.3442C194.702 81.3029 194.549 81.2689 194.397 81.2421C194.083 81.1863 193.767 81.1443 193.45 81.1125C193.296 81.0972 193.141 81.0835 192.986 81.1009C192.68 81.1356 192.37 81.1755 192.068 81.2414C191.994 81.258 191.92 81.2761 191.847 81.2957C191.73 81.3275 191.639 81.3703 191.52 81.421C191.288 81.5195 191.044 81.6571 190.875 81.8519C190.558 82.2176 190.3 82.6905 190.323 83.1967C190.344 83.6674 190.492 84.2352 190.875 84.5415C191.149 84.761 191.39 84.979 191.749 85.0608C191.807 85.0738 191.869 85.0803 191.928 85.089C192.082 85.1137 192.236 85.1404 192.388 85.1796C192.562 85.2245 192.74 85.2462 192.916 85.2838C193.093 85.3215 193.269 85.3686 193.442 85.4251C193.524 85.4518 193.606 85.4808 193.686 85.512C193.775 85.5467 193.872 85.5598 193.966 85.5764C193.956 85.575 193.947 85.5742 193.938 85.5728C193.951 85.575 193.964 85.5771 193.977 85.5793C194.058 85.5931 194.136 85.6104 194.217 85.6184C194.329 85.6372 194.442 85.6532 194.549 85.6561C194.659 85.6655 194.768 85.6539 194.875 85.6213C195.064 85.6206 195.24 85.5728 195.403 85.4772C195.58 85.4272 195.734 85.3367 195.865 85.2063C195.946 85.1578 196.018 85.1006 196.084 85.034C196.095 85.0224 196.107 85.0115 196.118 85C196.476 84.6226 196.683 84.1121 196.689 83.5899C196.691 83.4791 196.67 83.4031 196.652 83.2691Z" fill="#ECECEC"/>
<path d="M202.88 112.457C202.809 112.157 202.673 111.896 202.471 111.674C202.054 111.129 201.389 110.726 200.679 110.766C200.607 110.771 200.536 110.772 200.465 110.775C199.951 110.795 199.528 110.923 199.084 111.163C198.917 111.254 198.767 111.347 198.611 111.457C198.469 111.558 198.323 111.653 198.173 111.742C197.99 111.851 197.821 111.98 197.654 112.113C197.06 112.547 196.33 112.856 195.984 113.542C195.817 113.872 195.745 114.201 195.794 114.571C195.844 114.944 195.993 115.206 196.234 115.497C196.74 116.108 197.478 116.184 198.201 116.256C198.522 116.288 198.846 116.299 199.166 116.281C199.703 116.249 200.187 116.106 200.679 115.905C201.065 115.748 201.341 115.635 201.651 115.398C202.033 115.107 202.38 114.857 202.582 114.401C202.687 114.164 202.786 113.923 202.881 113.682C202.988 113.273 202.988 112.865 202.88 112.457Z" fill="#ECECEC"/>
<path d="M238.152 290.515H230.42L214.443 224.84H222.174L238.152 290.515Z" fill="#8895A5"/>
<path d="M285.395 290.515H277.665L261.688 224.84H269.418L285.395 290.515Z" fill="#8895A5"/>
<path d="M236.004 290.515H228.273L212.296 224.84H220.027L236.004 290.515Z" fill="#99A4AF"/>
<path d="M194.773 290.515H202.503L218.48 224.84H210.75L194.773 290.515Z" fill="#8895A5"/>
<path d="M283.42 290.515H275.689L259.712 224.84H267.442L283.42 290.515Z" fill="#99A4AF"/>
<path d="M222.603 248.407H268.302V241.649H222.603V248.407Z" fill="#99A4AF"/>
<path d="M229.819 272.494H275.517V265.736H229.819V272.494Z" fill="#99A4AF"/>
<path d="M191.795 290.515H199.526L215.503 224.84H207.772L191.795 290.515Z" fill="#ECECEC"/>
<path d="M242.075 290.515H249.805L265.782 224.84H258.052L242.075 290.515Z" fill="#8895A5"/>
<path d="M239.211 290.515H246.941L262.918 224.84H255.188L239.211 290.515Z" fill="#ECECEC"/>
<path d="M252.611 241.648H206.913V248.407H252.611V241.648Z" fill="#ECECEC"/>
<path d="M245.395 265.735H199.697V272.494H245.395V265.735Z" fill="#ECECEC"/>
<path d="M268.704 226.573H205.938C204.421 226.573 203.19 225.333 203.19 223.802V223.684C203.19 222.153 204.42 220.912 205.938 220.912H268.704C270.221 220.912 271.451 222.153 271.451 223.684V223.802C271.451 225.333 270.221 226.573 268.704 226.573Z" fill="#ECECEC"/>
<path d="M35.1933 167.58H86.3877C88.0929 167.58 89.7061 168.256 90.7759 169.418L98.0031 177.271C98.716 178.046 99.7922 178.497 100.929 178.497H180.846C183.677 178.497 185.971 180.505 185.971 182.983V280.838C185.971 286.183 181.021 290.516 174.914 290.516H37.7184C33.4422 290.516 29.9751 287.482 29.9751 283.739V172.148C29.9758 169.625 32.3114 167.58 35.1933 167.58Z" fill="#FFF1B2"/>
<path d="M72.7262 109.138L51.1877 130.863V214.114H156.769V109.138H72.7262Z" fill="#ECECEC"/>
<path d="M72.7262 130.863V109.138L51.1877 130.863H72.7262Z" fill="#99A4AF"/>
<path d="M17.2327 192.107H159.088C162.431 192.107 165.3 194.191 165.918 197.067L184.425 283.311C185.228 287.054 181.947 290.516 177.595 290.516H35.7406C32.397 290.516 29.5279 288.432 28.9105 285.556L10.4033 199.312C9.59988 195.568 12.881 192.107 17.2327 192.107Z" fill="#FFC600"/>
<path d="M108.286 153.721C110.985 150.962 113.679 148.197 116.374 145.432C117.961 143.804 118.104 140.868 116.374 139.266C114.661 137.679 111.955 137.529 110.261 139.266C107.527 141.977 104.794 144.688 102.065 147.403C99.3637 144.678 96.6527 141.964 93.9093 139.28C92.3147 137.621 89.3071 137.544 87.7268 139.28C86.1042 141.063 86.0252 143.747 87.7268 145.516C90.3797 148.276 93.0642 151.004 95.7588 153.721C93.0657 156.437 90.3833 159.163 87.7311 161.922C86.0863 163.53 86.0094 166.564 87.7311 168.158C89.4988 169.794 92.1589 169.874 93.9136 168.158C96.6555 165.476 99.3659 162.763 102.065 160.039C104.792 162.752 107.524 165.462 110.257 168.172C111.871 169.773 114.781 169.918 116.37 168.172C117.943 166.444 118.092 163.715 116.37 162.006C113.677 159.243 110.984 156.479 108.286 153.721Z" fill="#D80027"/>
<path d="M21.1828 116.198H20.258C20.1144 115.751 19.9364 115.32 19.7267 114.908L20.3815 114.247C21.0011 113.622 21.0011 112.61 20.3815 111.985L18.8199 110.409C18.2003 109.785 17.1966 109.785 16.5777 110.409L15.9229 111.069C15.5136 110.859 15.0864 110.678 14.6435 110.533V109.601C14.6435 108.717 13.9334 108.001 13.0575 108.001H10.8483C9.97233 108.001 9.26225 108.717 9.26225 109.601V110.533C8.81926 110.678 8.39207 110.858 7.98282 111.069L7.32803 110.409C6.70914 109.785 5.70469 109.785 5.0858 110.409L3.52349 111.985C2.9046 112.61 2.9046 113.622 3.52349 114.247L4.17828 114.908C3.96863 115.32 3.79058 115.751 3.64698 116.198H2.72223C1.84631 116.198 1.13623 116.914 1.13623 117.798V120.026C1.13623 120.91 1.84631 121.626 2.72223 121.626H3.64698C3.79058 122.073 3.96863 122.504 4.17828 122.917L3.52349 123.577C2.9046 124.202 2.9046 125.214 3.52349 125.839L5.0858 127.415C5.70469 128.039 6.70914 128.039 7.32803 127.415L7.98282 126.754C8.39207 126.965 8.81926 127.145 9.26225 127.29V128.223C9.26225 129.106 9.97233 129.822 10.8483 129.822H13.0575C13.9334 129.822 14.6435 129.106 14.6435 128.223V127.29C15.0864 127.145 15.5136 126.966 15.9229 126.754L16.5777 127.415C17.1973 128.039 18.201 128.039 18.8199 127.415L20.3815 125.839C21.0011 125.214 21.0011 124.201 20.3815 123.577L19.7267 122.917C19.9356 122.504 20.1144 122.074 20.258 121.626H21.1828C22.0587 121.626 22.7688 120.91 22.7688 120.026V117.798C22.768 116.914 22.058 116.198 21.1828 116.198ZM11.9525 124.509C8.88818 124.509 6.40328 122.003 6.40328 118.912C6.40328 115.821 8.88747 113.314 11.9525 113.314C15.0175 113.314 17.5017 115.82 17.5017 118.912C17.5017 122.003 15.0168 124.509 11.9525 124.509Z" fill="#FFDA44"/>
<path d="M200.964 154.015H200.039C199.895 153.568 199.717 153.137 199.508 152.724L200.162 152.064C200.781 151.439 200.781 150.426 200.162 149.801L198.6 148.226C197.981 147.601 196.977 147.601 196.357 148.226L195.702 148.887C195.293 148.675 194.867 148.496 194.423 148.351V147.418C194.423 146.535 193.713 145.818 192.837 145.818H190.628C189.752 145.818 189.042 146.535 189.042 147.418V148.351C188.599 148.496 188.172 148.675 187.762 148.887L187.108 148.226C186.489 147.601 185.484 147.601 184.865 148.226L183.303 149.801C182.683 150.426 182.683 151.439 183.303 152.064L183.958 152.724C183.748 153.137 183.57 153.568 183.427 154.015H182.502C181.626 154.015 180.916 154.731 180.916 155.615V157.843C180.916 158.726 181.626 159.443 182.502 159.443H183.427C183.57 159.89 183.748 160.32 183.958 160.733L183.303 161.394C182.683 162.019 182.683 163.031 183.303 163.656L184.865 165.232C185.484 165.856 186.489 165.856 187.108 165.232L187.762 164.571C188.172 164.783 188.599 164.962 189.042 165.107V166.04C189.042 166.924 189.752 167.64 190.628 167.64H192.837C193.713 167.64 194.423 166.924 194.423 166.04V165.107C194.866 164.962 195.293 164.783 195.702 164.571L196.357 165.232C196.977 165.856 197.981 165.856 198.6 165.232L200.162 163.656C200.781 163.031 200.781 162.019 200.162 161.394L199.508 160.733C199.717 160.32 199.895 159.89 200.039 159.443H200.964C201.84 159.443 202.55 158.726 202.55 157.843V155.615C202.549 154.73 201.84 154.015 200.964 154.015ZM191.733 162.325C188.669 162.325 186.184 159.819 186.184 156.728C186.184 153.636 188.668 151.13 191.733 151.13C194.798 151.13 197.283 153.636 197.283 156.728C197.283 159.819 194.798 162.325 191.733 162.325Z" fill="#FFDA44"/>
<path d="M46.1086 99.653L44.8902 99.1874C44.9225 98.5262 44.9003 97.8686 44.8292 97.2197L46.0189 96.6787C47.1439 96.1675 47.6451 94.8335 47.1382 93.6987L45.8595 90.8367C45.3526 89.7018 44.0301 89.1963 42.905 89.7076L41.7153 90.2486C41.281 89.7648 40.8071 89.3129 40.2952 88.8987L40.7568 87.6697C41.1941 86.506 40.6125 85.2046 39.4587 84.7643L36.5481 83.6526C35.3943 83.2116 34.1048 83.7982 33.6676 84.962L33.2059 86.1909C32.5504 86.1583 31.8985 86.1808 31.2552 86.2525L30.7189 85.0525C30.212 83.9177 28.8887 83.4122 27.7644 83.9235L24.927 85.2133C23.8019 85.7245 23.3008 87.0585 23.8077 88.1933L24.344 89.3933C23.8644 89.8315 23.4156 90.3094 23.0057 90.8258L21.7873 90.3601C20.6335 89.9191 19.344 90.5057 18.9068 91.6695L17.8047 94.6054C17.3674 95.7692 17.949 97.0705 19.1028 97.5109L20.3212 97.9765C20.2889 98.6377 20.3111 99.2953 20.3822 99.9442L19.1925 100.485C18.0675 100.996 17.5663 102.33 18.0732 103.465L19.3519 106.327C19.8588 107.462 21.1813 107.968 22.3064 107.456L23.4961 106.915C23.9304 107.399 24.4043 107.852 24.9162 108.265L24.4545 109.494C24.0173 110.658 24.5989 111.959 25.7526 112.4L28.6633 113.511C29.8171 113.952 31.1066 113.366 31.5438 112.202L32.0055 110.973C32.661 111.006 33.3129 110.983 33.9562 110.911L34.4925 112.111C34.9994 113.246 36.3219 113.752 37.447 113.24L40.2844 111.951C41.4095 111.439 41.9106 110.105 41.4037 108.971L40.8674 107.771C41.347 107.332 41.7957 106.854 42.2057 106.338L43.4241 106.804C44.5779 107.245 45.8674 106.658 46.3046 105.494L47.4067 102.559C47.8432 101.395 47.2624 100.093 46.1086 99.653ZM29.8357 105.956C25.7979 104.414 23.7646 99.8616 25.2939 95.7887C26.8231 91.7158 31.3363 89.6649 35.3742 91.2074C39.4121 92.75 41.4454 97.3023 39.9161 101.375C38.3868 105.447 33.8736 107.499 29.8357 105.956Z" fill="#FFDA44"/>
<path d="M59.5671 45.3007L53.7437 57.7576L66.2472 92.8797L98.9724 81.0268L83.2064 36.7393L59.5671 45.3007Z" fill="#ECECEC"/>
<path d="M62.8303 54.4662L59.5671 45.3008L53.7437 57.7577L62.8303 54.4662Z" fill="#ABB1B9"/>
<path d="M78.0458 63.609C78.8543 61.8485 79.6598 60.0865 80.4654 58.3245C80.94 57.2868 80.5149 55.8796 79.4315 55.4205C78.3589 54.9657 77.0586 55.3561 76.5524 56.4633C75.7196 58.2072 74.886 59.9504 74.056 61.6949C72.3272 60.8723 70.5947 60.0561 68.8522 59.2602C67.8226 58.7511 66.3931 59.2276 65.9401 60.3154C65.4748 61.4321 65.8877 62.7095 66.9862 63.2527C68.6985 64.1 70.4202 64.927 72.1455 65.7468C71.3321 67.4856 70.5258 69.2273 69.7396 70.9792C69.2341 72.0177 69.7073 73.4595 70.785 73.9165C71.8921 74.3858 73.1586 73.9694 73.6971 72.8621C74.5392 71.1305 75.3606 69.3903 76.1755 67.6471C77.9152 68.4604 79.657 69.2701 81.3988 70.0804C82.4276 70.5591 83.8226 70.1304 84.2778 69.0376C84.7287 67.9549 84.3417 66.6441 83.244 66.1335C81.5108 65.2906 79.779 64.4483 78.0458 63.609Z" fill="#D80027"/>
<path d="M127.998 21.8496L117.097 26.3389L104.737 56.0078L132.382 67.7246L147.967 30.3133L127.998 21.8496Z" fill="#ECECEC"/>
<path d="M124.773 29.592L127.998 21.8496L117.097 26.3389L124.773 29.592Z" fill="#ABB1B9"/>
<path d="M129.154 44.3504C130.686 43.7073 132.216 43.062 133.746 42.416C134.648 42.0358 135.192 40.8916 134.769 39.9625C134.35 39.042 133.298 38.5257 132.336 38.9312C130.799 39.5489 129.262 40.1667 127.726 40.7866C127.103 39.247 126.475 37.7095 125.828 36.1793C125.468 35.2501 124.284 34.712 123.367 35.1364C122.426 35.5724 121.95 36.6268 122.334 37.6182C122.932 39.1637 123.548 40.7019 124.169 42.2372C122.647 42.8636 121.128 43.4958 119.615 44.1462C118.694 44.509 118.161 45.7032 118.581 46.6272C119.014 47.5767 120.059 48.0568 121.041 47.6701C122.577 47.0654 124.105 46.4426 125.631 45.814C126.266 47.3536 126.904 48.8925 127.542 50.4322C127.919 51.341 129.053 51.89 129.974 51.4634C130.887 51.0412 131.399 49.9803 130.997 49.0099C130.383 47.4565 129.77 45.9023 129.154 44.3504Z" fill="#D80027"/>
</svg>
