<svg width="28" height="28" viewBox="0 0 28 28" fill="none" xmlns="http://www.w3.org/2000/svg">
<path d="M22.1666 12.8337H15.1666V5.83366C15.1666 5.52424 15.0437 5.22749 14.8249 5.0087C14.6061 4.78991 14.3094 4.66699 14 4.66699C13.6905 4.66699 13.3938 4.78991 13.175 5.0087C12.9562 5.22749 12.8333 5.52424 12.8333 5.83366V12.8337H5.83329C5.52387 12.8337 5.22713 12.9566 5.00834 13.1754C4.78954 13.3942 4.66663 13.6909 4.66663 14.0003C4.66663 14.3097 4.78954 14.6065 5.00834 14.8253C5.22713 15.0441 5.52387 15.167 5.83329 15.167H12.8333V22.167C12.8333 22.4764 12.9562 22.7732 13.175 22.992C13.3938 23.2108 13.6905 23.3337 14 23.3337C14.3094 23.3337 14.6061 23.2108 14.8249 22.992C15.0437 22.7732 15.1666 22.4764 15.1666 22.167V15.167H22.1666C22.4761 15.167 22.7728 15.0441 22.9916 14.8253C23.2104 14.6065 23.3333 14.3097 23.3333 14.0003C23.3333 13.6909 23.2104 13.3942 22.9916 13.1754C22.7728 12.9566 22.4761 12.8337 22.1666 12.8337Z" fill="black"/>
</svg>
