<svg width="20" height="24" viewBox="0 0 20 24" fill="none" xmlns="http://www.w3.org/2000/svg">
<path d="M14.9999 24H4.99988C2.24288 24 -0.00012207 21.757 -0.00012207 19V5C-0.00012207 2.243 2.24288 0 4.99988 0H14.9999C17.7569 0 19.9999 2.243 19.9999 5V19C19.9999 21.757 17.7569 24 14.9999 24ZM4.99988 2C3.34588 2 1.99988 3.346 1.99988 5V19C1.99988 20.654 3.34588 22 4.99988 22H14.9999C16.6539 22 17.9999 20.654 17.9999 19V5C17.9999 3.346 16.6539 2 14.9999 2H4.99988ZM15.9999 6C15.9999 5.448 15.5519 5 14.9999 5H10.9999C10.4479 5 9.99988 5.448 9.99988 6C9.99988 6.552 10.4479 7 10.9999 7H14.9999C15.5519 7 15.9999 6.552 15.9999 6ZM15.9999 12C15.9999 11.448 15.5519 11 14.9999 11H10.9999C10.4479 11 9.99988 11.448 9.99988 12C9.99988 12.552 10.4479 13 10.9999 13H14.9999C15.5519 13 15.9999 12.552 15.9999 12ZM15.9999 18C15.9999 17.448 15.5519 17 14.9999 17H10.9999C10.4479 17 9.99988 17.448 9.99988 18C9.99988 18.552 10.4479 19 10.9999 19H14.9999C15.5519 19 15.9999 18.552 15.9999 18ZM7.99988 7V5C7.99988 4.448 7.55188 4 6.99988 4H4.99988C4.44788 4 3.99988 4.448 3.99988 5V7C3.99988 7.552 4.44788 8 4.99988 8H6.99988C7.55188 8 7.99988 7.552 7.99988 7ZM7.99988 13V11C7.99988 10.448 7.55188 10 6.99988 10H4.99988C4.44788 10 3.99988 10.448 3.99988 11V13C3.99988 13.552 4.44788 14 4.99988 14H6.99988C7.55188 14 7.99988 13.552 7.99988 13ZM7.99988 19V17C7.99988 16.448 7.55188 16 6.99988 16H4.99988C4.44788 16 3.99988 16.448 3.99988 17V19C3.99988 19.552 4.44788 20 4.99988 20H6.99988C7.55188 20 7.99988 19.552 7.99988 19Z" fill="black"/>
</svg>
