<svg width="48" height="48" viewBox="0 0 48 48" fill="none" xmlns="http://www.w3.org/2000/svg">
<circle cx="24" cy="24" r="24" fill="white"/>
<g clip-path="url(#clip0_1439_24242)">
<path d="M29 36H19C16.243 36 14 33.757 14 31V17C14 14.243 16.243 12 19 12H29C31.757 12 34 14.243 34 17V31C34 33.757 31.757 36 29 36ZM19 14C17.346 14 16 15.346 16 17V31C16 32.654 17.346 34 19 34H29C30.654 34 32 32.654 32 31V17C32 15.346 30.654 14 29 14H19ZM30 18C30 17.448 29.552 17 29 17H25C24.448 17 24 17.448 24 18C24 18.552 24.448 19 25 19H29C29.552 19 30 18.552 30 18ZM30 24C30 23.448 29.552 23 29 23H25C24.448 23 24 23.448 24 24C24 24.552 24.448 25 25 25H29C29.552 25 30 24.552 30 24ZM30 30C30 29.448 29.552 29 29 29H25C24.448 29 24 29.448 24 30C24 30.552 24.448 31 25 31H29C29.552 31 30 30.552 30 30ZM22 19V17C22 16.448 21.552 16 21 16H19C18.448 16 18 16.448 18 17V19C18 19.552 18.448 20 19 20H21C21.552 20 22 19.552 22 19ZM22 25V23C22 22.448 21.552 22 21 22H19C18.448 22 18 22.448 18 23V25C18 25.552 18.448 26 19 26H21C21.552 26 22 25.552 22 25ZM22 31V29C22 28.448 21.552 28 21 28H19C18.448 28 18 28.448 18 29V31C18 31.552 18.448 32 19 32H21C21.552 32 22 31.552 22 31Z" fill="#FFC600"/>
</g>
<defs>
<clipPath id="clip0_1439_24242">
<rect width="24" height="24" fill="white" transform="translate(12 12)"/>
</clipPath>
</defs>
</svg>
