<svg width="40" height="40" viewBox="0 0 40 40" fill="none" xmlns="http://www.w3.org/2000/svg">
<g opacity="40%" clip-path="url(#clip0_1696_440)">
<path d="M38.3333 36.6667H8.33333C7.00725 36.6667 5.73548 36.1399 4.7978 35.2022C3.86012 34.2645 3.33333 32.9927 3.33333 31.6667V1.66667C3.33333 1.22464 3.15774 0.800716 2.84518 0.488155C2.53262 0.175595 2.10869 0 1.66667 0C1.22464 0 0.800716 0.175595 0.488155 0.488155C0.175595 0.800716 0 1.22464 0 1.66667L0 31.6667C0.00264643 33.876 0.88147 35.9941 2.4437 37.5563C4.00593 39.1185 6.12401 39.9974 8.33333 40H38.3333C38.7754 40 39.1993 39.8244 39.5118 39.5118C39.8244 39.1993 40 38.7754 40 38.3333C40 37.8913 39.8244 37.4674 39.5118 37.1548C39.1993 36.8423 38.7754 36.6667 38.3333 36.6667Z" fill="black"/>
<path d="M10.0002 33.3333C10.4422 33.3333 10.8661 33.1577 11.1787 32.8451C11.4912 32.5325 11.6668 32.1086 11.6668 31.6666V19.9999C11.6668 19.5579 11.4912 19.134 11.1787 18.8214C10.8661 18.5088 10.4422 18.3333 10.0002 18.3333C9.55814 18.3333 9.13421 18.5088 8.82165 18.8214C8.50909 19.134 8.3335 19.5579 8.3335 19.9999V31.6666C8.3335 32.1086 8.50909 32.5325 8.82165 32.8451C9.13421 33.1577 9.55814 33.3333 10.0002 33.3333Z" fill="black"/>
<path d="M16.6665 16.6667V31.6667C16.6665 32.1087 16.8421 32.5326 17.1547 32.8452C17.4672 33.1577 17.8911 33.3333 18.3332 33.3333C18.7752 33.3333 19.1991 33.1577 19.5117 32.8452C19.8242 32.5326 19.9998 32.1087 19.9998 31.6667V16.6667C19.9998 16.2246 19.8242 15.8007 19.5117 15.4882C19.1991 15.1756 18.7752 15 18.3332 15C17.8911 15 17.4672 15.1756 17.1547 15.4882C16.8421 15.8007 16.6665 16.2246 16.6665 16.6667Z" fill="black"/>
<path d="M25 21.6667V31.6667C25 32.1087 25.1756 32.5326 25.4882 32.8452C25.8007 33.1577 26.2246 33.3333 26.6667 33.3333C27.1087 33.3333 27.5326 33.1577 27.8452 32.8452C28.1577 32.5326 28.3333 32.1087 28.3333 31.6667V21.6667C28.3333 21.2246 28.1577 20.8007 27.8452 20.4882C27.5326 20.1756 27.1087 20 26.6667 20C26.2246 20 25.8007 20.1756 25.4882 20.4882C25.1756 20.8007 25 21.2246 25 21.6667Z" fill="black"/>
<path d="M33.3335 14.9999V31.6666C33.3335 32.1086 33.5091 32.5325 33.8217 32.8451C34.1342 33.1577 34.5581 33.3333 35.0002 33.3333C35.4422 33.3333 35.8661 33.1577 36.1787 32.8451C36.4912 32.5325 36.6668 32.1086 36.6668 31.6666V14.9999C36.6668 14.5579 36.4912 14.134 36.1787 13.8214C35.8661 13.5088 35.4422 13.3333 35.0002 13.3333C34.5581 13.3333 34.1342 13.5088 33.8217 13.8214C33.5091 14.134 33.3335 14.5579 33.3335 14.9999Z" fill="black"/>
<path d="M9.99981 15C10.4418 14.9999 10.8657 14.8243 11.1781 14.5117L17.1548 8.53503C17.4725 8.2324 17.8944 8.0636 18.3331 8.0636C18.7719 8.0636 19.1938 8.2324 19.5115 8.53503L23.1315 12.155C24.0691 13.0924 25.3407 13.619 26.6665 13.619C27.9923 13.619 29.2638 13.0924 30.2015 12.155L39.5115 2.84503C39.8151 2.53069 39.9831 2.10969 39.9793 1.67269C39.9755 1.2357 39.8002 0.817677 39.4912 0.508663C39.1822 0.19965 38.7641 0.0243682 38.3271 0.0205708C37.8901 0.0167735 37.4691 0.184764 37.1548 0.488361L27.8448 9.79669C27.5323 10.1091 27.1084 10.2847 26.6665 10.2847C26.2245 10.2847 25.8007 10.1091 25.4881 9.79669L21.8681 6.17836C20.9305 5.24101 19.659 4.71443 18.3331 4.71443C17.0073 4.71443 15.7358 5.24101 14.7981 6.17836L8.82147 12.155C8.58846 12.3881 8.42978 12.6851 8.3655 13.0083C8.30122 13.3316 8.33423 13.6666 8.46034 13.9711C8.58646 14.2756 8.80003 14.5359 9.07404 14.719C9.34806 14.9022 9.67022 15 9.99981 15Z" fill="black"/>
</g>
<defs>
<clipPath id="clip0_1696_440">
<rect width="40" height="40" fill="white"/>
</clipPath>
</defs>
</svg>
