<svg width="36" opacity="40%" height="40" viewBox="0 0 36 40" fill="none" xmlns="http://www.w3.org/2000/svg">
<path d="M35.0161 1.565C34.4078 0.585 33.3544 0 32.2011 0H27.1861C24.6294 0 22.3378 1.42333 21.2078 3.71667L18.1061 10.005C18.0711 10.005 18.0361 10 18.0011 10C17.9778 10 17.9561 10.0033 17.9328 10.0033L14.8311 3.71667C13.6994 1.42333 11.4094 0 8.85278 0H3.83778C2.68445 0 1.63111 0.585 1.02111 1.565C0.412779 2.545 0.354446 3.74833 0.864446 4.78333L6.25111 15.705C4.22278 18.2633 3.00111 21.49 3.00111 25.0017C3.00111 33.2717 9.73111 40.0017 18.0011 40.0017C26.2711 40.0017 33.0011 33.2717 33.0011 25.0017C33.0011 21.5033 31.7878 18.29 29.7728 15.735L35.1744 4.785C35.6861 3.75 35.6261 2.54667 35.0178 1.56667L35.0161 1.565ZM8.85111 3.33333C10.1294 3.33333 11.2744 4.045 11.8394 5.19167L14.4311 10.4467C12.3244 10.9633 10.3911 11.92 8.73778 13.2233L3.83611 3.33333H8.85111ZM17.9994 36.6667C11.5661 36.6667 6.33278 31.4333 6.33278 25C6.33278 18.9 11.0411 13.8867 17.0144 13.3833C17.0161 13.3833 17.0178 13.3833 17.0211 13.3833C17.3444 13.3567 17.6711 13.3333 18.0011 13.3333C24.4344 13.3333 29.6678 18.5667 29.6678 25C29.6678 31.4333 24.4344 36.6667 18.0011 36.6667H17.9994ZM27.2828 13.2417C25.6328 11.935 23.7028 10.9767 21.5994 10.455L24.1961 5.19167C24.7611 4.045 25.9061 3.33333 27.1844 3.33333L32.1844 3.30833L27.2828 13.2417ZM24.9278 24.0167C24.9278 24.6183 24.5094 25.125 24.0294 25.3917L21.5461 26.7717L22.6478 29.7767C22.8611 30.3583 22.6678 31.0117 22.1728 31.385C21.6661 31.7667 20.9678 31.7617 20.4678 31.3733L17.9978 29.4633L15.5278 31.3733C15.0261 31.76 14.3278 31.765 13.8228 31.385C13.3278 31.0117 13.1344 30.36 13.3478 29.7767L14.4494 26.7717L11.9661 25.3917C11.4861 25.125 11.0678 24.6183 11.0678 24.0167C11.0678 23.5067 11.5111 22.9433 12.2278 22.9433H15.7944L16.7394 19.3183C16.8894 18.7433 17.4044 18.3433 17.9978 18.3333C18.5894 18.345 19.1061 18.7433 19.2561 19.3183L20.2011 22.9433H23.7678C24.4844 22.9433 24.9278 23.505 24.9278 24.0167Z" fill="black"/>
</svg>
