<svg width="21" height="22" viewBox="0 0 21 22" fill="none" xmlns="http://www.w3.org/2000/svg">
<g clip-path="url(#clip0_1771_2911)">
<path d="M18.375 11H15.75C14.7849 11 14 11.7849 14 12.75C14 13.7151 13.2151 14.5 12.25 14.5H8.75C7.78487 14.5 7 13.7151 7 12.75C7 11.7849 6.21513 11 5.25 11H2.625C1.17775 11 0 12.1777 0 13.625V17.125C0 19.5374 1.96263 21.5 4.375 21.5H16.625C19.0374 21.5 21 19.5374 21 17.125V13.625C21 12.1777 19.8223 11 18.375 11ZM19.25 17.125C19.25 18.5723 18.0723 19.75 16.625 19.75H4.375C2.92775 19.75 1.75 18.5723 1.75 17.125V13.625C1.75 13.142 2.142 12.75 2.625 12.75L5.25 12.7483V12.75C5.25 14.6803 6.81975 16.25 8.75 16.25H12.25C14.1803 16.25 15.75 14.6803 15.75 12.75H18.375C18.858 12.75 19.25 13.142 19.25 13.625V17.125ZM6.38138 5.13138C6.03925 4.78925 6.03925 4.23625 6.38138 3.89412L9.26275 1.01275C9.6005 0.675 10.0441 0.50525 10.4878 0.502625L10.5 0.5L10.5122 0.502625C10.9567 0.50525 11.3995 0.675 11.7372 1.01275L14.6186 3.89412C14.9608 4.23625 14.9608 4.78925 14.6186 5.13138C14.448 5.302 14.224 5.38775 14 5.38775C13.776 5.38775 13.552 5.302 13.3814 5.13138L11.375 3.125V9.25C11.375 9.73387 10.9839 10.125 10.5 10.125C10.0161 10.125 9.625 9.73387 9.625 9.25V3.125L7.61862 5.13138C7.2765 5.4735 6.7235 5.4735 6.38138 5.13138Z" fill="black"/>
</g>
<defs>
<clipPath id="clip0_1771_2911">
<rect width="21" height="21" fill="white" transform="translate(0 0.5)"/>
</clipPath>
</defs>
</svg>
