<svg width="16" height="16" viewBox="0 0 16 16" fill="none" xmlns="http://www.w3.org/2000/svg">
<g clip-path="url(#clip0_424_13276)">
<path d="M15.514 6.27935C14.48 4.59535 12.128 1.77002 7.99997 1.77002C3.87197 1.77002 1.51997 4.59535 0.485973 6.27935C0.166325 6.79636 -0.00299072 7.39218 -0.00299072 8.00002C-0.00299072 8.60786 0.166325 9.20368 0.485973 9.72069C1.51997 11.4047 3.87197 14.23 7.99997 14.23C12.128 14.23 14.48 11.4047 15.514 9.72069C15.8336 9.20368 16.0029 8.60786 16.0029 8.00002C16.0029 7.39218 15.8336 6.79636 15.514 6.27935ZM14.3773 9.02269C13.4893 10.4667 11.4793 12.8967 7.99997 12.8967C4.52064 12.8967 2.51064 10.4667 1.62264 9.02269C1.43273 8.71538 1.33214 8.36127 1.33214 8.00002C1.33214 7.63877 1.43273 7.28466 1.62264 6.97735C2.51064 5.53335 4.52064 3.10335 7.99997 3.10335C11.4793 3.10335 13.4893 5.53069 14.3773 6.97735C14.5672 7.28466 14.6678 7.63877 14.6678 8.00002C14.6678 8.36127 14.5672 8.71538 14.3773 9.02269Z" fill="#030303"/>
<path d="M8.00002 4.66675C7.34075 4.66675 6.69629 4.86224 6.14812 5.22852C5.59996 5.59479 5.17272 6.11538 4.92042 6.72447C4.66813 7.33356 4.60212 8.00378 4.73074 8.65038C4.85935 9.29699 5.17682 9.89093 5.643 10.3571C6.10917 10.8233 6.70312 11.1407 7.34972 11.2694C7.99632 11.398 8.66655 11.332 9.27563 11.0797C9.88472 10.8274 10.4053 10.4001 10.7716 9.85198C11.1379 9.30382 11.3334 8.65935 11.3334 8.00008C11.3323 7.11635 10.9808 6.26912 10.3559 5.64423C9.73098 5.01934 8.88375 4.66781 8.00002 4.66675ZM8.00002 10.0001C7.60446 10.0001 7.21778 9.88278 6.88888 9.66302C6.55998 9.44326 6.30364 9.1309 6.15226 8.76545C6.00089 8.4 5.96128 7.99786 6.03845 7.6099C6.11562 7.22194 6.3061 6.86557 6.58581 6.58587C6.86551 6.30616 7.22188 6.11568 7.60984 6.03851C7.9978 5.96134 8.39994 6.00095 8.76539 6.15232C9.13084 6.3037 9.4432 6.56004 9.66296 6.88894C9.88272 7.21784 10 7.60452 10 8.00008C10 8.53051 9.78931 9.03922 9.41424 9.4143C9.03916 9.78937 8.53046 10.0001 8.00002 10.0001Z" fill="#030303"/>
</g>
<defs>
<clipPath id="clip0_424_13276">
<rect width="16" height="16" fill="white"/>
</clipPath>
</defs>
</svg>
