<svg width="20" height="24" viewBox="0 0 20 24" fill="none" xmlns="http://www.w3.org/2000/svg">
<path d="M15 24H5C2.243 24 0 21.757 0 19V5C0 2.243 2.243 0 5 0H15C17.757 0 20 2.243 20 5V19C20 21.757 17.757 24 15 24ZM5 2C3.346 2 2 3.346 2 5V19C2 20.654 3.346 22 5 22H15C16.654 22 18 20.654 18 19V5C18 3.346 16.654 2 15 2H5ZM16 6C16 5.448 15.552 5 15 5H11C10.448 5 10 5.448 10 6C10 6.552 10.448 7 11 7H15C15.552 7 16 6.552 16 6ZM16 12C16 11.448 15.552 11 15 11H11C10.448 11 10 11.448 10 12C10 12.552 10.448 13 11 13H15C15.552 13 16 12.552 16 12ZM16 18C16 17.448 15.552 17 15 17H11C10.448 17 10 17.448 10 18C10 18.552 10.448 19 11 19H15C15.552 19 16 18.552 16 18ZM8 7V5C8 4.448 7.552 4 7 4H5C4.448 4 4 4.448 4 5V7C4 7.552 4.448 8 5 8H7C7.552 8 8 7.552 8 7ZM8 13V11C8 10.448 7.552 10 7 10H5C4.448 10 4 10.448 4 11V13C4 13.552 4.448 14 5 14H7C7.552 14 8 13.552 8 13ZM8 19V17C8 16.448 7.552 16 7 16H5C4.448 16 4 16.448 4 17V19C4 19.552 4.448 20 5 20H7C7.552 20 8 19.552 8 19Z" fill="black"/>
</svg>
